<?xml version="1.0" encoding="utf-8" standalone="no"?>
<!DOCTYPE svg PUBLIC "-//W3C//DTD SVG 1.1//EN"
  "http://www.w3.org/Graphics/SVG/1.1/DTD/svg11.dtd">
<!-- Created with matplotlib (https://matplotlib.org/) -->
<svg height="345.6pt" version="1.1" viewBox="0 0 460.8 345.6" width="460.8pt" xmlns="http://www.w3.org/2000/svg" xmlns:xlink="http://www.w3.org/1999/xlink">
 <defs>
  <style type="text/css">
*{stroke-linecap:butt;stroke-linejoin:round;}
  </style>
 </defs>
 <g id="figure_1">
  <g id="patch_1">
   <path d="M 0 345.6 
L 460.8 345.6 
L 460.8 0 
L 0 0 
z
" style="fill:#ffffff;"/>
  </g>
  <g id="axes_1">
   <g id="patch_2">
    <path d="M 46.220312 304.021875 
L 446.55 304.021875 
L 446.55 14.599219 
L 46.220312 14.599219 
z
" style="fill:#ffffff;"/>
   </g>
   <g id="matplotlib.axis_1">
    <g id="xtick_1">
     <g id="text_1">
      <!-- $\Gamma$ -->
      <defs>
       <path d="M 9.8125 0 
L 9.8125 72.90625 
L 55.171875 72.90625 
L 55.171875 64.59375 
L 19.671875 64.59375 
L 19.671875 0 
z
" id="DejaVuSans-915"/>
      </defs>
      <g transform="translate(43.420313 318.620312)scale(0.1 -0.1)">
       <use transform="translate(0 0.09375)" xlink:href="#DejaVuSans-915"/>
      </g>
     </g>
    </g>
    <g id="xtick_2">
     <g id="text_2">
      <!-- $X$ -->
      <defs>
       <path d="M 13.71875 72.90625 
L 23.6875 72.90625 
L 36.1875 46.578125 
L 58.796875 72.90625 
L 70.3125 72.90625 
L 40.28125 38.09375 
L 58.40625 0 
L 48.484375 0 
L 33.796875 30.71875 
L 7.171875 0 
L -4.296875 0 
L 29.78125 39.203125 
z
" id="DejaVuSans-Oblique-88"/>
      </defs>
      <g transform="translate(123.534119 318.620312)scale(0.1 -0.1)">
       <use transform="translate(0 0.09375)" xlink:href="#DejaVuSans-Oblique-88"/>
      </g>
     </g>
    </g>
    <g id="xtick_3">
     <g id="text_3">
      <!-- $U$|$K$ -->
      <defs>
       <path d="M 15.484375 72.90625 
L 25.390625 72.90625 
L 16.796875 28.609375 
Q 16.265625 25.640625 16.046875 23.703125 
Q 15.828125 21.78125 15.828125 20.3125 
Q 15.828125 13.578125 19.578125 10.078125 
Q 23.34375 6.59375 30.609375 6.59375 
Q 40.046875 6.59375 45.28125 11.765625 
Q 50.53125 16.9375 52.78125 28.609375 
L 61.375 72.90625 
L 71.296875 72.90625 
L 62.5 27.390625 
Q 59.625 12.640625 51.5625 5.609375 
Q 43.5 -1.421875 29.5 -1.421875 
Q 18.5625 -1.421875 12.1875 4.078125 
Q 5.8125 9.578125 5.8125 19 
Q 5.8125 20.703125 6.046875 22.828125 
Q 6.296875 24.953125 6.78125 27.390625 
z
" id="DejaVuSans-Oblique-85"/>
       <path d="M 21 76.421875 
L 21 -23.578125 
L 12.703125 -23.578125 
L 12.703125 76.421875 
z
" id="DejaVuSans-124"/>
       <path d="M 16.890625 72.90625 
L 26.8125 72.90625 
L 20.796875 42.1875 
L 59.078125 72.90625 
L 72.21875 72.90625 
L 28.90625 38.09375 
L 60.59375 0 
L 48.578125 0 
L 19.484375 35.5 
L 12.59375 0 
L 2.6875 0 
z
" id="DejaVuSans-Oblique-75"/>
      </defs>
      <g transform="translate(153.305873 318.721875)scale(0.1 -0.1)">
       <use transform="translate(0 0.578125)" xlink:href="#DejaVuSans-Oblique-85"/>
       <use transform="translate(73.193359 0.578125)" xlink:href="#DejaVuSans-124"/>
       <use transform="translate(106.884766 0.578125)" xlink:href="#DejaVuSans-Oblique-75"/>
      </g>
     </g>
    </g>
    <g id="xtick_4">
     <g id="text_4">
      <!-- $\Gamma$ -->
      <g transform="translate(264.071136 318.620312)scale(0.1 -0.1)">
       <use transform="translate(0 0.09375)" xlink:href="#DejaVuSans-915"/>
      </g>
     </g>
    </g>
    <g id="xtick_5">
     <g id="text_5">
      <!-- $L$ -->
      <defs>
       <path d="M 16.796875 72.90625 
L 26.703125 72.90625 
L 14.203125 8.203125 
L 49.703125 8.203125 
L 48.09375 0 
L 2.6875 0 
z
" id="DejaVuSans-Oblique-76"/>
      </defs>
      <g transform="translate(362.986193 318.620312)scale(0.1 -0.1)">
       <use transform="translate(0 0.09375)" xlink:href="#DejaVuSans-Oblique-76"/>
      </g>
     </g>
    </g>
    <g id="xtick_6">
     <g id="text_6">
      <!-- $W$ -->
      <defs>
       <path d="M 9.625 72.90625 
L 19.1875 72.90625 
L 22.703125 10.890625 
L 50.203125 72.90625 
L 61.1875 72.90625 
L 64.796875 10.890625 
L 92 72.90625 
L 102 72.90625 
L 69.578125 0 
L 57.171875 0 
L 53.8125 60.796875 
L 26.515625 0 
L 14.109375 0 
z
" id="DejaVuSans-Oblique-87"/>
      </defs>
      <g transform="translate(401.218097 318.620312)scale(0.1 -0.1)">
       <use transform="translate(0 0.09375)" xlink:href="#DejaVuSans-Oblique-87"/>
      </g>
     </g>
    </g>
    <g id="xtick_7">
     <g id="text_7">
      <!-- $X$ -->
      <g transform="translate(443.1 318.620312)scale(0.1 -0.1)">
       <use transform="translate(0 0.09375)" xlink:href="#DejaVuSans-Oblique-88"/>
      </g>
     </g>
    </g>
    <g id="text_8">
     <!-- Wave Vector -->
     <defs>
      <path d="M 3.328125 72.90625 
L 13.28125 72.90625 
L 28.609375 11.28125 
L 43.890625 72.90625 
L 54.984375 72.90625 
L 70.3125 11.28125 
L 85.59375 72.90625 
L 95.609375 72.90625 
L 77.296875 0 
L 64.890625 0 
L 49.515625 63.28125 
L 33.984375 0 
L 21.578125 0 
z
" id="DejaVuSans-87"/>
      <path d="M 34.28125 27.484375 
Q 23.390625 27.484375 19.1875 25 
Q 14.984375 22.515625 14.984375 16.5 
Q 14.984375 11.71875 18.140625 8.90625 
Q 21.296875 6.109375 26.703125 6.109375 
Q 34.1875 6.109375 38.703125 11.40625 
Q 43.21875 16.703125 43.21875 25.484375 
L 43.21875 27.484375 
z
M 52.203125 31.203125 
L 52.203125 0 
L 43.21875 0 
L 43.21875 8.296875 
Q 40.140625 3.328125 35.546875 0.953125 
Q 30.953125 -1.421875 24.3125 -1.421875 
Q 15.921875 -1.421875 10.953125 3.296875 
Q 6 8.015625 6 15.921875 
Q 6 25.140625 12.171875 29.828125 
Q 18.359375 34.515625 30.609375 34.515625 
L 43.21875 34.515625 
L 43.21875 35.40625 
Q 43.21875 41.609375 39.140625 45 
Q 35.0625 48.390625 27.6875 48.390625 
Q 23 48.390625 18.546875 47.265625 
Q 14.109375 46.140625 10.015625 43.890625 
L 10.015625 52.203125 
Q 14.9375 54.109375 19.578125 55.046875 
Q 24.21875 56 28.609375 56 
Q 40.484375 56 46.34375 49.84375 
Q 52.203125 43.703125 52.203125 31.203125 
z
" id="DejaVuSans-97"/>
      <path d="M 2.984375 54.6875 
L 12.5 54.6875 
L 29.59375 8.796875 
L 46.6875 54.6875 
L 56.203125 54.6875 
L 35.6875 0 
L 23.484375 0 
z
" id="DejaVuSans-118"/>
      <path d="M 56.203125 29.59375 
L 56.203125 25.203125 
L 14.890625 25.203125 
Q 15.484375 15.921875 20.484375 11.0625 
Q 25.484375 6.203125 34.421875 6.203125 
Q 39.59375 6.203125 44.453125 7.46875 
Q 49.3125 8.734375 54.109375 11.28125 
L 54.109375 2.78125 
Q 49.265625 0.734375 44.1875 -0.34375 
Q 39.109375 -1.421875 33.890625 -1.421875 
Q 20.796875 -1.421875 13.15625 6.1875 
Q 5.515625 13.8125 5.515625 26.8125 
Q 5.515625 40.234375 12.765625 48.109375 
Q 20.015625 56 32.328125 56 
Q 43.359375 56 49.78125 48.890625 
Q 56.203125 41.796875 56.203125 29.59375 
z
M 47.21875 32.234375 
Q 47.125 39.59375 43.09375 43.984375 
Q 39.0625 48.390625 32.421875 48.390625 
Q 24.90625 48.390625 20.390625 44.140625 
Q 15.875 39.890625 15.1875 32.171875 
z
" id="DejaVuSans-101"/>
      <path id="DejaVuSans-32"/>
      <path d="M 28.609375 0 
L 0.78125 72.90625 
L 11.078125 72.90625 
L 34.1875 11.53125 
L 57.328125 72.90625 
L 67.578125 72.90625 
L 39.796875 0 
z
" id="DejaVuSans-86"/>
      <path d="M 48.78125 52.59375 
L 48.78125 44.1875 
Q 44.96875 46.296875 41.140625 47.34375 
Q 37.3125 48.390625 33.40625 48.390625 
Q 24.65625 48.390625 19.8125 42.84375 
Q 14.984375 37.3125 14.984375 27.296875 
Q 14.984375 17.28125 19.8125 11.734375 
Q 24.65625 6.203125 33.40625 6.203125 
Q 37.3125 6.203125 41.140625 7.25 
Q 44.96875 8.296875 48.78125 10.40625 
L 48.78125 2.09375 
Q 45.015625 0.34375 40.984375 -0.53125 
Q 36.96875 -1.421875 32.421875 -1.421875 
Q 20.0625 -1.421875 12.78125 6.34375 
Q 5.515625 14.109375 5.515625 27.296875 
Q 5.515625 40.671875 12.859375 48.328125 
Q 20.21875 56 33.015625 56 
Q 37.15625 56 41.109375 55.140625 
Q 45.0625 54.296875 48.78125 52.59375 
z
" id="DejaVuSans-99"/>
      <path d="M 18.3125 70.21875 
L 18.3125 54.6875 
L 36.8125 54.6875 
L 36.8125 47.703125 
L 18.3125 47.703125 
L 18.3125 18.015625 
Q 18.3125 11.328125 20.140625 9.421875 
Q 21.96875 7.515625 27.59375 7.515625 
L 36.8125 7.515625 
L 36.8125 0 
L 27.59375 0 
Q 17.1875 0 13.234375 3.875 
Q 9.28125 7.765625 9.28125 18.015625 
L 9.28125 47.703125 
L 2.6875 47.703125 
L 2.6875 54.6875 
L 9.28125 54.6875 
L 9.28125 70.21875 
z
" id="DejaVuSans-116"/>
      <path d="M 30.609375 48.390625 
Q 23.390625 48.390625 19.1875 42.75 
Q 14.984375 37.109375 14.984375 27.296875 
Q 14.984375 17.484375 19.15625 11.84375 
Q 23.34375 6.203125 30.609375 6.203125 
Q 37.796875 6.203125 41.984375 11.859375 
Q 46.1875 17.53125 46.1875 27.296875 
Q 46.1875 37.015625 41.984375 42.703125 
Q 37.796875 48.390625 30.609375 48.390625 
z
M 30.609375 56 
Q 42.328125 56 49.015625 48.375 
Q 55.71875 40.765625 55.71875 27.296875 
Q 55.71875 13.875 49.015625 6.21875 
Q 42.328125 -1.421875 30.609375 -1.421875 
Q 18.84375 -1.421875 12.171875 6.21875 
Q 5.515625 13.875 5.515625 27.296875 
Q 5.515625 40.765625 12.171875 48.375 
Q 18.84375 56 30.609375 56 
z
" id="DejaVuSans-111"/>
      <path d="M 41.109375 46.296875 
Q 39.59375 47.171875 37.8125 47.578125 
Q 36.03125 48 33.890625 48 
Q 26.265625 48 22.1875 43.046875 
Q 18.109375 38.09375 18.109375 28.8125 
L 18.109375 0 
L 9.078125 0 
L 9.078125 54.6875 
L 18.109375 54.6875 
L 18.109375 46.1875 
Q 20.953125 51.171875 25.484375 53.578125 
Q 30.03125 56 36.53125 56 
Q 37.453125 56 38.578125 55.875 
Q 39.703125 55.765625 41.0625 55.515625 
z
" id="DejaVuSans-114"/>
     </defs>
     <g transform="translate(215.1375 332.720312)scale(0.1 -0.1)">
      <use xlink:href="#DejaVuSans-87"/>
      <use x="92.501953" xlink:href="#DejaVuSans-97"/>
      <use x="153.78125" xlink:href="#DejaVuSans-118"/>
      <use x="212.960938" xlink:href="#DejaVuSans-101"/>
      <use x="274.484375" xlink:href="#DejaVuSans-32"/>
      <use x="306.271484" xlink:href="#DejaVuSans-86"/>
      <use x="366.929688" xlink:href="#DejaVuSans-101"/>
      <use x="428.453125" xlink:href="#DejaVuSans-99"/>
      <use x="483.433594" xlink:href="#DejaVuSans-116"/>
      <use x="522.642578" xlink:href="#DejaVuSans-111"/>
      <use x="583.824219" xlink:href="#DejaVuSans-114"/>
     </g>
    </g>
   </g>
   <g id="matplotlib.axis_2">
    <g id="ytick_1">
     <g id="text_9">
      <!-- −4 -->
      <defs>
       <path d="M 10.59375 35.5 
L 73.1875 35.5 
L 73.1875 27.203125 
L 10.59375 27.203125 
z
" id="DejaVuSans-8722"/>
       <path d="M 37.796875 64.3125 
L 12.890625 25.390625 
L 37.796875 25.390625 
z
M 35.203125 72.90625 
L 47.609375 72.90625 
L 47.609375 25.390625 
L 58.015625 25.390625 
L 58.015625 17.1875 
L 47.609375 17.1875 
L 47.609375 0 
L 37.796875 0 
L 37.796875 17.1875 
L 4.890625 17.1875 
L 4.890625 26.703125 
z
" id="DejaVuSans-52"/>
      </defs>
      <g transform="translate(24.478125 307.821094)scale(0.1 -0.1)">
       <use xlink:href="#DejaVuSans-8722"/>
       <use x="83.789062" xlink:href="#DejaVuSans-52"/>
      </g>
     </g>
    </g>
    <g id="ytick_2">
     <g id="text_10">
      <!-- −3 -->
      <defs>
       <path d="M 40.578125 39.3125 
Q 47.65625 37.796875 51.625 33 
Q 55.609375 28.21875 55.609375 21.1875 
Q 55.609375 10.40625 48.1875 4.484375 
Q 40.765625 -1.421875 27.09375 -1.421875 
Q 22.515625 -1.421875 17.65625 -0.515625 
Q 12.796875 0.390625 7.625 2.203125 
L 7.625 11.71875 
Q 11.71875 9.328125 16.59375 8.109375 
Q 21.484375 6.890625 26.8125 6.890625 
Q 36.078125 6.890625 40.9375 10.546875 
Q 45.796875 14.203125 45.796875 21.1875 
Q 45.796875 27.640625 41.28125 31.265625 
Q 36.765625 34.90625 28.71875 34.90625 
L 20.21875 34.90625 
L 20.21875 43.015625 
L 29.109375 43.015625 
Q 36.375 43.015625 40.234375 45.921875 
Q 44.09375 48.828125 44.09375 54.296875 
Q 44.09375 59.90625 40.109375 62.90625 
Q 36.140625 65.921875 28.71875 65.921875 
Q 24.65625 65.921875 20.015625 65.03125 
Q 15.375 64.15625 9.8125 62.3125 
L 9.8125 71.09375 
Q 15.4375 72.65625 20.34375 73.4375 
Q 25.25 74.21875 29.59375 74.21875 
Q 40.828125 74.21875 47.359375 69.109375 
Q 53.90625 64.015625 53.90625 55.328125 
Q 53.90625 49.265625 50.4375 45.09375 
Q 46.96875 40.921875 40.578125 39.3125 
z
" id="DejaVuSans-51"/>
      </defs>
      <g transform="translate(24.478125 271.643262)scale(0.1 -0.1)">
       <use xlink:href="#DejaVuSans-8722"/>
       <use x="83.789062" xlink:href="#DejaVuSans-51"/>
      </g>
     </g>
    </g>
    <g id="ytick_3">
     <g id="text_11">
      <!-- −2 -->
      <defs>
       <path d="M 19.1875 8.296875 
L 53.609375 8.296875 
L 53.609375 0 
L 7.328125 0 
L 7.328125 8.296875 
Q 12.9375 14.109375 22.625 23.890625 
Q 32.328125 33.6875 34.8125 36.53125 
Q 39.546875 41.84375 41.421875 45.53125 
Q 43.3125 49.21875 43.3125 52.78125 
Q 43.3125 58.59375 39.234375 62.25 
Q 35.15625 65.921875 28.609375 65.921875 
Q 23.96875 65.921875 18.8125 64.3125 
Q 13.671875 62.703125 7.8125 59.421875 
L 7.8125 69.390625 
Q 13.765625 71.78125 18.9375 73 
Q 24.125 74.21875 28.421875 74.21875 
Q 39.75 74.21875 46.484375 68.546875 
Q 53.21875 62.890625 53.21875 53.421875 
Q 53.21875 48.921875 51.53125 44.890625 
Q 49.859375 40.875 45.40625 35.40625 
Q 44.1875 33.984375 37.640625 27.21875 
Q 31.109375 20.453125 19.1875 8.296875 
z
" id="DejaVuSans-50"/>
      </defs>
      <g transform="translate(24.478125 235.46543)scale(0.1 -0.1)">
       <use xlink:href="#DejaVuSans-8722"/>
       <use x="83.789062" xlink:href="#DejaVuSans-50"/>
      </g>
     </g>
    </g>
    <g id="ytick_4">
     <g id="text_12">
      <!-- −1 -->
      <defs>
       <path d="M 12.40625 8.296875 
L 28.515625 8.296875 
L 28.515625 63.921875 
L 10.984375 60.40625 
L 10.984375 69.390625 
L 28.421875 72.90625 
L 38.28125 72.90625 
L 38.28125 8.296875 
L 54.390625 8.296875 
L 54.390625 0 
L 12.40625 0 
z
" id="DejaVuSans-49"/>
      </defs>
      <g transform="translate(24.478125 199.287598)scale(0.1 -0.1)">
       <use xlink:href="#DejaVuSans-8722"/>
       <use x="83.789062" xlink:href="#DejaVuSans-49"/>
      </g>
     </g>
    </g>
    <g id="ytick_5">
     <g id="text_13">
      <!-- 0 -->
      <defs>
       <path d="M 31.78125 66.40625 
Q 24.171875 66.40625 20.328125 58.90625 
Q 16.5 51.421875 16.5 36.375 
Q 16.5 21.390625 20.328125 13.890625 
Q 24.171875 6.390625 31.78125 6.390625 
Q 39.453125 6.390625 43.28125 13.890625 
Q 47.125 21.390625 47.125 36.375 
Q 47.125 51.421875 43.28125 58.90625 
Q 39.453125 66.40625 31.78125 66.40625 
z
M 31.78125 74.21875 
Q 44.046875 74.21875 50.515625 64.515625 
Q 56.984375 54.828125 56.984375 36.375 
Q 56.984375 17.96875 50.515625 8.265625 
Q 44.046875 -1.421875 31.78125 -1.421875 
Q 19.53125 -1.421875 13.0625 8.265625 
Q 6.59375 17.96875 6.59375 36.375 
Q 6.59375 54.828125 13.0625 64.515625 
Q 19.53125 74.21875 31.78125 74.21875 
z
" id="DejaVuSans-48"/>
      </defs>
      <g transform="translate(32.857812 163.109766)scale(0.1 -0.1)">
       <use xlink:href="#DejaVuSans-48"/>
      </g>
     </g>
    </g>
    <g id="ytick_6">
     <g id="text_14">
      <!-- 1 -->
      <g transform="translate(32.857812 126.931934)scale(0.1 -0.1)">
       <use xlink:href="#DejaVuSans-49"/>
      </g>
     </g>
    </g>
    <g id="ytick_7">
     <g id="text_15">
      <!-- 2 -->
      <g transform="translate(32.857812 90.754102)scale(0.1 -0.1)">
       <use xlink:href="#DejaVuSans-50"/>
      </g>
     </g>
    </g>
    <g id="ytick_8">
     <g id="text_16">
      <!-- 3 -->
      <g transform="translate(32.857812 54.57627)scale(0.1 -0.1)">
       <use xlink:href="#DejaVuSans-51"/>
      </g>
     </g>
    </g>
    <g id="ytick_9">
     <g id="text_17">
      <!-- 4 -->
      <g transform="translate(32.857812 18.398438)scale(0.1 -0.1)">
       <use xlink:href="#DejaVuSans-52"/>
      </g>
     </g>
    </g>
    <g id="text_18">
     <!-- $E - E_f$ (eV) -->
     <defs>
      <path d="M 16.890625 72.90625 
L 62.984375 72.90625 
L 61.375 64.59375 
L 25.09375 64.59375 
L 20.90625 43.015625 
L 55.71875 43.015625 
L 54.109375 34.71875 
L 19.28125 34.71875 
L 14.203125 8.296875 
L 51.3125 8.296875 
L 49.703125 0 
L 2.6875 0 
z
" id="DejaVuSans-Oblique-69"/>
      <path d="M 47.796875 75.984375 
L 46.390625 68.5 
L 37.796875 68.5 
Q 32.90625 68.5 30.6875 66.578125 
Q 28.46875 64.65625 27.390625 59.515625 
L 26.421875 54.6875 
L 41.21875 54.6875 
L 39.890625 47.703125 
L 25.09375 47.703125 
L 15.828125 0 
L 6.78125 0 
L 16.109375 47.703125 
L 7.515625 47.703125 
L 8.796875 54.6875 
L 17.390625 54.6875 
L 18.109375 58.5 
Q 19.96875 68.171875 24.625 72.078125 
Q 29.296875 75.984375 39.3125 75.984375 
z
" id="DejaVuSans-Oblique-102"/>
      <path d="M 31 75.875 
Q 24.46875 64.65625 21.28125 53.65625 
Q 18.109375 42.671875 18.109375 31.390625 
Q 18.109375 20.125 21.3125 9.0625 
Q 24.515625 -2 31 -13.1875 
L 23.1875 -13.1875 
Q 15.875 -1.703125 12.234375 9.375 
Q 8.59375 20.453125 8.59375 31.390625 
Q 8.59375 42.28125 12.203125 53.3125 
Q 15.828125 64.359375 23.1875 75.875 
z
" id="DejaVuSans-40"/>
      <path d="M 8.015625 75.875 
L 15.828125 75.875 
Q 23.140625 64.359375 26.78125 53.3125 
Q 30.421875 42.28125 30.421875 31.390625 
Q 30.421875 20.453125 26.78125 9.375 
Q 23.140625 -1.703125 15.828125 -13.1875 
L 8.015625 -13.1875 
Q 14.5 -2 17.703125 9.0625 
Q 20.90625 20.125 20.90625 31.390625 
Q 20.90625 42.671875 17.703125 53.65625 
Q 14.5 64.65625 8.015625 75.875 
z
" id="DejaVuSans-41"/>
     </defs>
     <g transform="translate(18.398437 185.160547)rotate(-90)scale(0.1 -0.1)">
      <use transform="translate(0 0.125)" xlink:href="#DejaVuSans-Oblique-69"/>
      <use transform="translate(82.666016 0.125)" xlink:href="#DejaVuSans-8722"/>
      <use transform="translate(185.9375 0.125)" xlink:href="#DejaVuSans-Oblique-69"/>
      <use transform="translate(249.121094 -16.28125)scale(0.7)" xlink:href="#DejaVuSans-Oblique-102"/>
      <use transform="translate(276.499023 0.125)" xlink:href="#DejaVuSans-32"/>
      <use transform="translate(308.286133 0.125)" xlink:href="#DejaVuSans-40"/>
      <use transform="translate(347.299805 0.125)" xlink:href="#DejaVuSans-101"/>
      <use transform="translate(408.823242 0.125)" xlink:href="#DejaVuSans-86"/>
      <use transform="translate(477.231445 0.125)" xlink:href="#DejaVuSans-41"/>
     </g>
    </g>
   </g>
   <g id="line2d_1">
    <path clip-path="url(#p3a2ced3460)" style="fill:none;stroke:#008000;stroke-linecap:square;"/>
   </g>
   <g id="line2d_2">
    <path clip-path="url(#p3a2ced3460)" style="fill:none;stroke:#008000;stroke-linecap:square;"/>
   </g>
   <g id="line2d_3">
    <path clip-path="url(#p3a2ced3460)" style="fill:none;stroke:#008000;stroke-linecap:square;"/>
   </g>
   <g id="line2d_4">
    <path clip-path="url(#p3a2ced3460)" style="fill:none;stroke:#008000;stroke-linecap:square;"/>
   </g>
   <g id="line2d_5">
    <path clip-path="url(#p3a2ced3460)" style="fill:none;stroke:#008000;stroke-linecap:square;"/>
   </g>
   <g id="line2d_6">
    <path clip-path="url(#p3a2ced3460)" style="fill:none;stroke:#008000;stroke-linecap:square;"/>
   </g>
   <g id="line2d_7">
    <path clip-path="url(#p3a2ced3460)" style="fill:none;stroke:#008000;stroke-linecap:square;"/>
   </g>
   <g id="line2d_8">
    <path clip-path="url(#p3a2ced3460)" style="fill:none;stroke:#008000;stroke-linecap:square;"/>
   </g>
   <g id="line2d_9">
    <path clip-path="url(#p3a2ced3460)" style="fill:none;stroke:#008000;stroke-linecap:square;"/>
   </g>
   <g id="line2d_10">
    <path clip-path="url(#p3a2ced3460)" style="fill:none;stroke:#008000;stroke-linecap:square;"/>
   </g>
   <g id="line2d_11">
    <path clip-path="url(#p3a2ced3460)" style="fill:none;stroke:#008000;stroke-linecap:square;"/>
   </g>
   <g id="line2d_12">
    <path clip-path="url(#p3a2ced3460)" style="fill:none;stroke:#008000;stroke-linecap:square;"/>
   </g>
   <g id="line2d_13">
    <path clip-path="url(#p3a2ced3460)" d="M 46.220312 329.835192 
L 50.471039 331.62708 
L 54.721766 336.468506 
L 58.972492 343.242769 
L 60.826144 346.6 
" style="fill:none;stroke:#008000;stroke-linecap:square;"/>
   </g>
   <g id="line2d_14">
    <path clip-path="url(#p3a2ced3460)" d="M 249.724859 346.6 
L 250.305568 345.586948 
L 255.827424 337.463939 
L 261.34928 331.863358 
L 266.871136 329.835192 
L 266.871136 329.835192 
L 272.077191 331.200435 
L 277.283247 335.098524 
L 282.489303 341.053142 
L 286.354898 346.6 
" style="fill:none;stroke:#008000;stroke-linecap:square;"/>
   </g>
   <g id="line2d_15">
    <path clip-path="url(#p3a2ced3460)" d="M 46.220312 236.259493 
L 50.471039 236.794057 
L 54.721766 238.363741 
L 58.972492 240.873144 
L 63.223219 244.17864 
L 67.473946 248.109072 
L 71.724672 252.484346 
L 75.975399 257.130231 
L 80.226126 261.887544 
L 84.476852 266.615082 
L 88.727579 271.191107 
L 92.978306 275.514575 
L 97.229032 279.500504 
L 101.479759 295.268468 
L 105.730486 311.117108 
L 109.981212 325.580426 
L 114.231939 338.353842 
L 117.541007 346.6 
M 159.924909 346.6 
L 160.115255 346.459159 
L 161.955873 345.025468 
" style="fill:none;stroke:#008000;stroke-linecap:square;"/>
   </g>
   <g id="line2d_16">
    <path clip-path="url(#p3a2ced3460)" d="M 161.955873 345.025468 
L 167.477729 340.305274 
L 172.999585 334.983225 
L 178.521441 329.100565 
L 184.043297 322.7074 
L 189.565153 315.863458 
L 195.087009 308.64012 
L 200.608865 301.122294 
L 206.13072 293.410447 
L 211.652576 285.621793 
L 217.174432 277.891278 
L 222.696288 270.368785 
L 228.218144 263.218092 
L 233.74 256.608438 
L 239.261856 250.707581 
L 244.783712 245.668696 
L 250.305568 241.620397 
L 255.827424 238.662533 
L 261.34928 236.86312 
L 266.871136 236.259493 
L 266.871136 236.259493 
L 272.077191 236.225052 
L 277.283247 236.119919 
L 282.489303 235.939898 
L 287.695358 235.678224 
L 292.901414 235.326177 
L 298.10747 234.875366 
L 303.313525 234.317069 
L 308.519581 233.643727 
L 313.725637 232.854399 
L 318.931692 231.952124 
L 324.137748 230.94819 
L 329.343804 229.863361 
L 334.549859 228.729512 
L 339.755915 227.591429 
L 344.961971 226.508229 
L 350.168026 225.549842 
L 355.374082 224.791663 
L 360.580138 224.302828 
L 365.786193 224.133805 
L 365.786193 224.133805 
L 367.911557 226.202888 
L 370.03692 231.688352 
L 372.162283 239.230887 
L 374.287647 247.777393 
L 376.41301 256.699896 
L 378.538373 265.637738 
L 380.663737 274.37378 
L 382.7891 282.7653 
L 384.914463 290.710242 
L 387.039827 298.129591 
L 389.16519 304.957434 
L 391.290553 311.135269 
L 393.415917 316.611109 
L 395.54128 321.336585 
L 397.666643 325.268826 
L 399.792007 328.36999 
L 401.91737 330.608819 
L 404.042733 331.961834 
L 406.168097 332.415323 
L 406.168097 332.415323 
L 408.29346 334.9422 
L 410.418823 337.385108 
L 412.544187 339.733049 
L 414.66955 341.977052 
L 416.794913 344.108722 
L 418.920277 346.120897 
L 419.460159 346.6 
" style="fill:none;stroke:#008000;stroke-linecap:square;"/>
   </g>
   <g id="line2d_17">
    <path clip-path="url(#p3a2ced3460)" d="M 46.220312 236.259493 
L 50.471039 236.793912 
L 54.721766 238.363596 
L 58.972492 240.872999 
L 63.223219 244.178495 
L 67.473946 248.108927 
L 71.724672 252.484202 
L 75.975399 257.130087 
L 80.226126 261.887399 
L 84.476852 266.614937 
L 88.727579 271.190963 
L 92.978306 275.514431 
L 97.229032 279.500396 
L 101.479759 283.078854 
L 105.730486 286.192788 
L 109.981212 288.797266 
L 114.231939 290.857558 
L 118.482666 292.347216 
L 122.733392 293.248044 
L 126.984119 293.549333 
L 126.984119 293.549333 
L 128.824738 293.498974 
L 130.665356 293.347823 
L 132.505975 293.096061 
L 134.346594 292.74387 
L 136.187212 292.291502 
L 138.027831 291.739248 
L 139.86845 291.087468 
L 141.709068 290.337104 
L 143.549687 289.488118 
L 145.390305 288.541525 
L 147.230924 287.49794 
L 149.071543 286.358229 
L 150.912161 285.12348 
L 152.75278 283.794704 
L 154.593399 282.373205 
L 156.434017 280.860248 
L 158.274636 279.257425 
L 160.115255 277.566474 
L 161.955873 275.789238 
" style="fill:none;stroke:#008000;stroke-linecap:square;"/>
   </g>
   <g id="line2d_18">
    <path clip-path="url(#p3a2ced3460)" d="M 161.955873 275.789238 
L 167.477729 269.962472 
L 172.999585 263.453755 
L 178.521441 256.3663 
L 184.043297 248.855674 
L 189.565153 241.15363 
L 195.087009 233.619199 
L 200.608865 226.790018 
L 206.13072 221.389283 
L 211.652576 218.1378 
L 217.174432 217.331541 
L 222.696288 218.594979 
L 228.218144 221.168598 
L 233.74 224.327284 
L 239.261856 227.546967 
L 244.783712 230.486633 
L 250.305568 232.933557 
L 255.827424 234.758294 
L 261.34928 235.880892 
L 266.871136 236.259493 
L 266.871136 236.259493 
L 272.077191 236.225052 
L 277.283247 236.119919 
L 282.489303 235.939898 
L 287.695358 235.678224 
L 292.901414 235.326177 
L 298.10747 234.875366 
L 303.313525 234.317069 
L 308.519581 233.643691 
L 313.725637 232.854399 
L 318.931692 231.952124 
L 324.137748 230.94819 
L 329.343804 229.863361 
L 334.549859 228.729512 
L 339.755915 227.591429 
L 344.961971 226.508229 
L 350.168026 225.549842 
L 355.374082 224.791663 
L 360.580138 224.302828 
L 365.786193 224.133805 
L 365.786193 224.133805 
L 367.911557 224.747201 
L 370.03692 226.680074 
L 372.162283 230.149781 
L 374.287647 235.309355 
L 376.41301 242.034235 
L 378.538373 249.925235 
L 380.663737 258.511754 
L 382.7891 267.402493 
L 384.914463 276.314286 
L 387.039827 285.045842 
L 389.16519 293.443875 
L 391.290553 301.378288 
L 393.415917 308.726042 
L 395.54128 315.357294 
L 397.666643 321.128671 
L 399.792007 325.880883 
L 401.91737 329.444725 
L 404.042733 331.661775 
L 406.168097 332.414491 
L 406.168097 332.414491 
L 408.29346 329.814824 
L 410.418823 327.154921 
L 412.544187 324.44976 
L 414.66955 321.715367 
L 416.794913 318.969687 
L 418.920277 316.232617 
L 421.04564 313.526298 
L 423.171003 310.874788 
L 425.296367 308.304426 
L 427.42173 305.843139 
L 429.547093 303.520848 
L 431.672457 301.368738 
L 433.79782 299.418427 
L 435.923183 297.70197 
L 438.048547 296.248923 
L 440.17391 295.086674 
L 442.299273 294.238738 
L 444.424637 293.722625 
L 446.55 293.549333 
" style="fill:none;stroke:#008000;stroke-linecap:square;"/>
   </g>
   <g id="line2d_19">
    <path clip-path="url(#p3a2ced3460)" d="M 46.220312 236.25924 
L 50.471039 233.751501 
L 54.721766 226.814076 
L 58.972492 216.758448 
L 63.223219 205.090265 
L 67.473946 193.846701 
L 71.724672 187.26031 
L 75.975399 191.572888 
L 80.226126 205.485074 
L 84.476852 223.186199 
L 88.727579 241.837355 
L 92.978306 260.364421 
L 97.229032 278.272846 
L 101.479759 283.078709 
L 105.730486 286.192643 
L 109.981212 288.797122 
L 114.231939 290.857449 
L 118.482666 292.347108 
L 122.733392 293.247936 
L 126.984119 293.549225 
L 126.984119 293.549225 
L 128.824738 293.395686 
L 130.665356 292.938688 
L 132.505975 292.188866 
L 134.346594 291.162935 
L 136.187212 289.881408 
L 138.027831 288.368017 
L 139.86845 286.647724 
L 141.709068 284.744843 
L 143.549687 282.682779 
L 145.390305 280.483203 
L 147.230924 278.16518 
L 149.071543 275.745643 
L 150.912161 273.239315 
L 152.75278 270.657991 
L 154.593399 268.011655 
L 156.434017 265.308122 
L 158.274636 262.553505 
L 160.115255 259.75269 
L 161.955873 256.909004 
" style="fill:none;stroke:#008000;stroke-linecap:square;"/>
   </g>
   <g id="line2d_20">
    <path clip-path="url(#p3a2ced3460)" d="M 161.955873 256.909004 
L 167.477729 248.142247 
L 172.999585 239.036829 
L 178.521441 229.585986 
L 184.043297 219.777271 
L 189.565153 209.616184 
L 195.087009 199.161478 
L 200.608865 188.612637 
L 206.13072 178.598541 
L 211.652576 171.23183 
L 217.174432 170.851203 
L 222.696288 176.925135 
L 228.218144 185.433438 
L 233.74 194.694891 
L 239.261856 204.128441 
L 244.783712 213.371154 
L 250.305568 221.985674 
L 255.827424 229.310202 
L 261.34928 234.404258 
L 266.871136 236.25924 
L 266.871136 236.25924 
L 272.077191 235.228968 
L 277.283247 232.335971 
L 282.489303 228.055302 
L 287.695358 222.918881 
L 292.901414 217.378644 
L 298.10747 211.768765 
L 303.313525 206.311918 
L 308.519581 201.14102 
L 313.725637 196.320578 
L 318.931692 191.859923 
L 324.137748 187.726136 
L 329.343804 183.85887 
L 334.549859 180.18143 
L 339.755915 176.609882 
L 344.961971 173.061596 
L 350.168026 169.460925 
L 355.374082 165.746619 
L 360.580138 161.903159 
L 365.786193 158.840452 
L 365.786193 158.840452 
L 367.911557 162.831446 
L 370.03692 171.711367 
L 372.162283 179.302634 
L 374.287647 185.071406 
L 376.41301 189.003466 
L 378.538373 191.420001 
L 380.663737 192.739732 
L 382.7891 193.315213 
L 384.914463 193.395853 
L 387.039827 193.152557 
L 389.16519 192.704024 
L 391.290553 192.136467 
L 393.415917 191.517066 
L 395.54128 190.90074 
L 397.666643 190.332278 
L 399.792007 189.849557 
L 401.91737 189.482569 
L 404.042733 189.25331 
L 406.168097 189.175203 
L 406.168097 189.175203 
L 408.29346 190.842277 
L 410.418823 195.33115 
L 412.544187 201.639768 
L 414.66955 208.947582 
L 416.794913 216.740902 
L 418.920277 224.716413 
L 421.04564 232.687222 
L 423.171003 240.528658 
L 425.296367 248.146986 
L 427.42173 255.462686 
L 429.547093 262.401631 
L 431.672457 268.887412 
L 433.79782 274.836639 
L 435.923183 280.156155 
L 438.048547 284.741189 
L 440.17391 288.478902 
L 442.299273 291.255514 
L 444.424637 292.969403 
L 446.55 293.549225 
" style="fill:none;stroke:#008000;stroke-linecap:square;"/>
   </g>
   <g id="line2d_21">
    <path clip-path="url(#p3a2ced3460)" d="M 46.220312 38.866983 
L 50.471039 44.139142 
L 54.721766 57.707674 
L 58.972492 75.61921 
L 63.223219 94.821716 
L 67.473946 112.602759 
L 71.724672 124.452989 
L 75.975399 124.017733 
L 80.226126 112.559707 
L 84.476852 95.887877 
L 88.727579 76.876318 
L 92.978306 58.538715 
L 97.229032 63.44736 
L 101.479759 67.72083 
L 105.730486 71.349249 
L 109.981212 74.325274 
L 114.231939 76.64402 
L 118.482666 78.302593 
L 122.733392 79.298496 
L 126.984119 79.630608 
L 126.984119 79.630608 
L 128.824738 79.466687 
L 130.665356 78.975753 
L 132.505975 78.160305 
L 134.346594 77.025009 
L 136.187212 75.575761 
L 138.027831 73.821642 
L 139.86845 71.773217 
L 141.709068 69.449732 
L 143.549687 66.871483 
L 145.390305 64.069148 
L 147.230924 61.086828 
L 149.071543 57.988342 
L 150.912161 54.873213 
L 152.75278 51.895308 
L 154.593399 49.289889 
L 156.434017 47.381761 
L 158.274636 46.511757 
L 160.115255 46.85787 
L 161.955873 50.666166 
" style="fill:none;stroke:#ff0000;stroke-linecap:square;"/>
   </g>
   <g id="line2d_22">
    <path clip-path="url(#p3a2ced3460)" d="M 161.955873 50.666166 
L 167.477729 64.912236 
L 172.999585 78.656412 
L 178.521441 91.654166 
L 184.043297 103.659273 
L 189.565153 114.37493 
L 195.087009 123.405604 
L 200.608865 130.190865 
L 206.13072 134.004298 
L 211.652576 138.827744 
L 217.174432 136.639347 
L 222.696288 127.335638 
L 228.218144 115.049936 
L 233.74 101.597535 
L 239.261856 88.043727 
L 244.783712 74.645195 
L 250.305568 61.640313 
L 255.827424 50.177946 
L 261.34928 41.937793 
L 266.871136 38.866983 
L 266.871136 38.866983 
L 272.077191 40.254801 
L 277.283247 44.17116 
L 282.489303 50.040832 
L 287.695358 57.229295 
L 292.901414 65.205783 
L 298.10747 73.577261 
L 303.313525 82.061325 
L 308.519581 90.456029 
L 313.725637 98.613117 
L 318.931692 106.415771 
L 324.137748 113.766925 
L 329.343804 120.578994 
L 334.549859 126.766814 
L 339.755915 132.243776 
L 344.961971 137.524763 
L 350.168026 143.031174 
L 355.374082 148.149107 
L 360.580138 152.850814 
L 365.786193 156.20269 
L 365.786193 156.20269 
L 367.911557 157.198811 
L 370.03692 153.813759 
L 372.162283 151.189745 
L 374.287647 149.472347 
L 376.41301 148.035472 
L 378.538373 146.605833 
L 380.663737 145.095481 
L 382.7891 143.484156 
L 384.914463 141.78018 
L 387.039827 140.008263 
L 389.16519 138.203604 
L 391.290553 136.409979 
L 393.415917 134.678653 
L 395.54128 133.066713 
L 397.666643 131.633782 
L 399.792007 130.440528 
L 401.91737 129.541943 
L 404.042733 128.983321 
L 406.168097 128.793641 
L 406.168097 128.793641 
L 408.29346 126.947088 
L 410.418823 121.920323 
L 412.544187 114.716449 
L 414.66955 106.161875 
L 416.794913 96.775717 
L 418.920277 86.870516 
L 421.04564 76.644454 
L 423.171003 66.241518 
L 425.296367 55.776827 
L 427.42173 55.06539 
L 429.547093 59.920781 
L 431.672457 64.329013 
L 433.79782 68.247579 
L 435.923183 71.640987 
L 438.048547 74.470492 
L 440.17391 76.706897 
L 442.299273 78.324263 
L 444.424637 79.302982 
L 446.55 79.630608 
" style="fill:none;stroke:#ff0000;stroke-linecap:square;"/>
   </g>
   <g id="line2d_23">
    <path clip-path="url(#p3a2ced3460)" d="M 46.220312 38.866983 
L 50.471039 38.864233 
L 54.721766 38.756423 
L 58.972492 38.326269 
L 63.223219 37.364662 
L 67.473946 35.741689 
L 71.724672 33.404203 
L 75.975399 32.951871 
L 80.226126 40.175535 
L 84.476852 46.875633 
L 88.727579 53.005858 
L 92.978306 56.670456 
L 97.229032 35.881046 
L 101.479759 14.984259 
L 105.258926 -1 
M 141.119991 -1 
L 141.709068 0.190022 
L 143.549687 4.175409 
L 145.390305 8.380792 
L 147.230924 12.764243 
L 149.071543 17.287376 
L 150.912161 21.919152 
L 152.75278 26.631568 
L 154.593399 31.40071 
L 156.434017 36.205814 
L 158.274636 41.028789 
L 160.115255 45.853791 
L 161.955873 48.321408 
" style="fill:none;stroke:#ff0000;stroke-linecap:square;"/>
   </g>
   <g id="line2d_24">
    <path clip-path="url(#p3a2ced3460)" d="M 161.955873 48.321408 
L 167.477729 56.820485 
L 172.999585 67.858233 
L 178.521441 79.570517 
L 184.043297 91.331894 
L 189.565153 102.850699 
L 195.087009 113.924371 
L 200.608865 124.283785 
L 206.13072 133.282225 
L 211.652576 134.132693 
L 217.174432 130.308045 
L 222.696288 122.953635 
L 228.218144 112.908787 
L 233.74 101.027734 
L 239.261856 87.716064 
L 244.783712 73.953113 
L 250.305568 60.975256 
L 255.827424 49.773297 
L 261.34928 41.819564 
L 266.871136 38.866983 
L 266.871136 38.866983 
L 272.077191 40.254801 
L 277.283247 44.17116 
L 282.489303 50.040832 
L 287.695358 57.229295 
L 292.901414 65.205783 
L 298.10747 73.577261 
L 303.313525 82.061325 
L 308.519581 90.456029 
L 313.725637 98.613117 
L 318.931692 106.415771 
L 324.137748 113.766925 
L 329.343804 120.578994 
L 334.549859 126.766814 
L 339.755915 132.243776 
L 344.961971 136.918314 
L 350.168026 140.69452 
L 355.374082 143.4792 
L 360.580138 145.188132 
L 365.786193 145.764988 
L 365.786193 145.764988 
L 367.911557 144.867524 
L 370.03692 141.360626 
L 372.162283 134.110516 
L 374.287647 124.04606 
L 376.41301 112.45414 
L 378.538373 100.013307 
L 380.663737 87.091671 
L 382.7891 73.937737 
L 384.914463 60.764412 
L 387.039827 47.794478 
L 389.16519 35.295326 
L 391.290553 23.619401 
L 393.415917 13.243454 
L 395.54128 4.758776 
L 397.556221 -1 
M 408.298529 -1 
L 410.418823 5.632905 
L 412.544187 12.335825 
L 414.66955 19.019245 
L 416.794913 25.603466 
L 418.920277 32.029119 
L 421.04564 38.238465 
L 423.171003 44.179408 
L 425.296367 49.80365 
L 427.42173 45.359059 
L 429.547093 35.103512 
L 431.672457 25.143573 
L 433.79782 15.641176 
L 435.923183 6.798229 
L 438.012182 -1 
" style="fill:none;stroke:#ff0000;stroke-linecap:square;"/>
   </g>
   <g id="line2d_25">
    <path clip-path="url(#p3a2ced3460)" d="M 46.220312 38.866042 
L 50.471039 38.863618 
L 54.721766 38.755808 
L 58.972492 38.32569 
L 63.223219 37.364083 
L 67.473946 35.741182 
L 71.724672 33.403696 
L 75.975399 30.36389 
L 80.226126 26.674583 
L 84.476852 22.415765 
L 88.727579 17.690072 
L 92.978306 12.625175 
L 97.229032 7.367668 
L 101.479759 2.092832 
L 104.06365 -1 
M 145.169963 -1 
L 145.390305 -0.669454 
L 147.230924 2.156179 
L 149.071543 4.959889 
L 150.912161 7.628438 
L 152.75278 9.99237 
L 154.593399 11.80383 
L 156.434017 12.728101 
L 158.274636 12.416321 
L 160.115255 10.684307 
L 161.955873 7.623409 
" style="fill:none;stroke:#ff0000;stroke-linecap:square;"/>
   </g>
   <g id="line2d_26">
    <path clip-path="url(#p3a2ced3460)" d="M 161.955873 7.623409 
L 165.226989 -1 
M 188.395535 -1 
L 189.565153 0.668981 
L 195.087009 8.054251 
L 200.608865 14.814585 
L 206.13072 20.836711 
L 211.652576 26.024648 
L 217.174432 30.31107 
L 222.696288 33.656073 
L 228.218144 36.070147 
L 233.74 37.625758 
L 239.261856 38.47127 
L 244.783712 38.822665 
L 250.305568 38.906019 
L 255.827424 38.894659 
L 261.34928 38.874833 
L 266.871136 38.866042 
L 266.871136 38.866042 
L 272.077191 40.175571 
L 277.283247 43.887236 
L 282.489303 49.482499 
L 287.695358 56.368588 
L 292.901414 64.036841 
L 298.10747 72.107971 
L 303.313525 80.31361 
L 308.519581 88.470589 
L 313.725637 96.455182 
L 318.931692 104.184033 
L 324.137748 111.595351 
L 329.343804 118.653755 
L 334.549859 125.335366 
L 339.755915 131.626836 
L 344.961971 136.918314 
L 350.168026 140.69452 
L 355.374082 143.4792 
L 360.580138 145.188132 
L 365.786193 145.764988 
L 365.786193 145.764988 
L 367.911557 138.232184 
L 370.03692 126.553582 
L 372.162283 114.069372 
L 374.287647 101.19379 
L 376.41301 88.115721 
L 378.538373 74.981214 
L 380.663737 61.932558 
L 382.7891 49.132804 
L 384.914463 36.78115 
L 387.039827 25.139992 
L 389.16519 14.571832 
L 391.290553 5.571077 
L 393.33295 -1 
" style="fill:none;stroke:#ff0000;stroke-linecap:square;"/>
   </g>
   <g id="line2d_27">
    <path clip-path="url(#p3a2ced3460)" d="M 57.64593 -1 
L 58.972492 1.205896 
L 63.223219 9.124427 
L 67.473946 17.267117 
L 71.724672 25.277504 
L 75.975399 30.363383 
L 80.226126 26.674077 
L 84.476852 22.415258 
L 88.727579 17.689529 
L 92.978306 12.624633 
L 97.229032 7.367089 
L 101.479759 2.092253 
L 103.208381 -1 
" style="fill:none;stroke:#ff0000;stroke-linecap:square;"/>
   </g>
   <g id="line2d_28">
    <path clip-path="url(#p3a2ced3460)" style="fill:none;stroke:#ff0000;stroke-linecap:square;"/>
   </g>
   <g id="line2d_29">
    <path clip-path="url(#p3a2ced3460)" style="fill:none;stroke:#ff0000;stroke-linecap:square;"/>
   </g>
   <g id="line2d_30">
    <path clip-path="url(#p3a2ced3460)" style="fill:none;stroke:#ff0000;stroke-linecap:square;"/>
   </g>
   <g id="line2d_31">
    <path clip-path="url(#p3a2ced3460)" style="fill:none;stroke:#ff0000;stroke-linecap:square;"/>
   </g>
   <g id="line2d_32">
    <path clip-path="url(#p3a2ced3460)" style="fill:none;stroke:#ff0000;stroke-linecap:square;"/>
   </g>
   <g id="line2d_33">
    <path clip-path="url(#p3a2ced3460)" d="M 46.220312 159.310547 
L 446.55 159.310547 
" style="fill:none;stroke:#000000;stroke-dasharray:5.55,2.4;stroke-dashoffset:0;stroke-opacity:0.5;stroke-width:1.5;"/>
   </g>
   <g id="line2d_34">
    <path clip-path="url(#p3a2ced3460)" d="M 46.220312 304.021875 
L 46.220312 14.599219 
" style="fill:none;stroke:#000000;stroke-dasharray:5.55,2.4;stroke-dashoffset:0;stroke-opacity:0.5;stroke-width:1.5;"/>
   </g>
   <g id="line2d_35">
    <path clip-path="url(#p3a2ced3460)" d="M 126.984119 304.021875 
L 126.984119 14.599219 
" style="fill:none;stroke:#000000;stroke-dasharray:5.55,2.4;stroke-dashoffset:0;stroke-opacity:0.5;stroke-width:1.5;"/>
   </g>
   <g id="line2d_36">
    <path clip-path="url(#p3a2ced3460)" d="M 161.955873 304.021875 
L 161.955873 14.599219 
" style="fill:none;stroke:#000000;stroke-dasharray:5.55,2.4;stroke-dashoffset:0;stroke-opacity:0.5;stroke-width:1.5;"/>
   </g>
   <g id="line2d_37">
    <path clip-path="url(#p3a2ced3460)" d="M 266.871136 304.021875 
L 266.871136 14.599219 
" style="fill:none;stroke:#000000;stroke-dasharray:5.55,2.4;stroke-dashoffset:0;stroke-opacity:0.5;stroke-width:1.5;"/>
   </g>
   <g id="line2d_38">
    <path clip-path="url(#p3a2ced3460)" d="M 365.786193 304.021875 
L 365.786193 14.599219 
" style="fill:none;stroke:#000000;stroke-dasharray:5.55,2.4;stroke-dashoffset:0;stroke-opacity:0.5;stroke-width:1.5;"/>
   </g>
   <g id="line2d_39">
    <path clip-path="url(#p3a2ced3460)" d="M 406.168097 304.021875 
L 406.168097 14.599219 
" style="fill:none;stroke:#000000;stroke-dasharray:5.55,2.4;stroke-dashoffset:0;stroke-opacity:0.5;stroke-width:1.5;"/>
   </g>
   <g id="line2d_40">
    <path clip-path="url(#p3a2ced3460)" d="M 446.55 304.021875 
L 446.55 14.599219 
" style="fill:none;stroke:#000000;stroke-dasharray:5.55,2.4;stroke-dashoffset:0;stroke-opacity:0.5;stroke-width:1.5;"/>
   </g>
   <g id="patch_3">
    <path d="M 46.220312 304.021875 
L 46.220312 14.599219 
" style="fill:none;stroke:#000000;stroke-linecap:square;stroke-linejoin:miter;stroke-width:0.8;"/>
   </g>
   <g id="patch_4">
    <path d="M 446.55 304.021875 
L 446.55 14.599219 
" style="fill:none;stroke:#000000;stroke-linecap:square;stroke-linejoin:miter;stroke-width:0.8;"/>
   </g>
   <g id="patch_5">
    <path d="M 46.220312 304.021875 
L 446.55 304.021875 
" style="fill:none;stroke:#000000;stroke-linecap:square;stroke-linejoin:miter;stroke-width:0.8;"/>
   </g>
   <g id="patch_6">
    <path d="M 46.220312 14.599219 
L 446.55 14.599219 
" style="fill:none;stroke:#000000;stroke-linecap:square;stroke-linejoin:miter;stroke-width:0.8;"/>
   </g>
  </g>
 </g>
 <defs>
  <clipPath id="p3a2ced3460">
   <rect height="289.422656" width="400.329688" x="46.220312" y="14.599219"/>
  </clipPath>
 </defs>
</svg>
