<?xml version="1.0" encoding="utf-8" standalone="no"?>
<!DOCTYPE svg PUBLIC "-//W3C//DTD SVG 1.1//EN"
  "http://www.w3.org/Graphics/SVG/1.1/DTD/svg11.dtd">
<!-- Created with matplotlib (https://matplotlib.org/) -->
<svg height="345.6pt" version="1.1" viewBox="0 0 460.8 345.6" width="460.8pt" xmlns="http://www.w3.org/2000/svg" xmlns:xlink="http://www.w3.org/1999/xlink">
 <defs>
  <style type="text/css">
*{stroke-linecap:butt;stroke-linejoin:round;}
  </style>
 </defs>
 <g id="figure_1">
  <g id="patch_1">
   <path d="M 0 345.6 
L 460.8 345.6 
L 460.8 0 
L 0 0 
z
" style="fill:#ffffff;"/>
  </g>
  <g id="axes_1">
   <g id="patch_2">
    <path d="M 46.220312 304.021875 
L 446.55 304.021875 
L 446.55 14.599219 
L 46.220312 14.599219 
z
" style="fill:#ffffff;"/>
   </g>
   <g id="matplotlib.axis_1">
    <g id="xtick_1">
     <g id="text_1">
      <!-- $\Gamma$ -->
      <defs>
       <path d="M 9.8125 0 
L 9.8125 72.90625 
L 55.171875 72.90625 
L 55.171875 64.59375 
L 19.671875 64.59375 
L 19.671875 0 
z
" id="DejaVuSans-915"/>
      </defs>
      <g transform="translate(43.420313 318.620312)scale(0.1 -0.1)">
       <use transform="translate(0 0.09375)" xlink:href="#DejaVuSans-915"/>
      </g>
     </g>
    </g>
    <g id="xtick_2">
     <g id="text_2">
      <!-- $X$ -->
      <defs>
       <path d="M 13.71875 72.90625 
L 23.6875 72.90625 
L 36.1875 46.578125 
L 58.796875 72.90625 
L 70.3125 72.90625 
L 40.28125 38.09375 
L 58.40625 0 
L 48.484375 0 
L 33.796875 30.71875 
L 7.171875 0 
L -4.296875 0 
L 29.78125 39.203125 
z
" id="DejaVuSans-Oblique-88"/>
      </defs>
      <g transform="translate(131.983337 318.620312)scale(0.1 -0.1)">
       <use transform="translate(0 0.09375)" xlink:href="#DejaVuSans-Oblique-88"/>
      </g>
     </g>
    </g>
    <g id="xtick_3">
     <g id="text_3">
      <!-- $U$|$K$ -->
      <defs>
       <path d="M 15.484375 72.90625 
L 25.390625 72.90625 
L 16.796875 28.609375 
Q 16.265625 25.640625 16.046875 23.703125 
Q 15.828125 21.78125 15.828125 20.3125 
Q 15.828125 13.578125 19.578125 10.078125 
Q 23.34375 6.59375 30.609375 6.59375 
Q 40.046875 6.59375 45.28125 11.765625 
Q 50.53125 16.9375 52.78125 28.609375 
L 61.375 72.90625 
L 71.296875 72.90625 
L 62.5 27.390625 
Q 59.625 12.640625 51.5625 5.609375 
Q 43.5 -1.421875 29.5 -1.421875 
Q 18.5625 -1.421875 12.1875 4.078125 
Q 5.8125 9.578125 5.8125 19 
Q 5.8125 20.703125 6.046875 22.828125 
Q 6.296875 24.953125 6.78125 27.390625 
z
" id="DejaVuSans-Oblique-85"/>
       <path d="M 21 76.421875 
L 21 -23.578125 
L 12.703125 -23.578125 
L 12.703125 76.421875 
z
" id="DejaVuSans-124"/>
       <path d="M 16.890625 72.90625 
L 26.8125 72.90625 
L 20.796875 42.1875 
L 59.078125 72.90625 
L 72.21875 72.90625 
L 28.90625 38.09375 
L 60.59375 0 
L 48.578125 0 
L 19.484375 35.5 
L 12.59375 0 
L 2.6875 0 
z
" id="DejaVuSans-Oblique-75"/>
      </defs>
      <g transform="translate(158.324905 318.721875)scale(0.1 -0.1)">
       <use transform="translate(0 0.578125)" xlink:href="#DejaVuSans-Oblique-85"/>
       <use transform="translate(73.193359 0.578125)" xlink:href="#DejaVuSans-124"/>
       <use transform="translate(106.884766 0.578125)" xlink:href="#DejaVuSans-Oblique-75"/>
      </g>
     </g>
    </g>
    <g id="xtick_4">
     <g id="text_4">
      <!-- $\Gamma$ -->
      <g transform="translate(258.799607 318.620312)scale(0.1 -0.1)">
       <use transform="translate(0 0.09375)" xlink:href="#DejaVuSans-915"/>
      </g>
     </g>
    </g>
    <g id="xtick_5">
     <g id="text_5">
      <!-- $L$ -->
      <defs>
       <path d="M 16.796875 72.90625 
L 26.703125 72.90625 
L 14.203125 8.203125 
L 49.703125 8.203125 
L 48.09375 0 
L 2.6875 0 
z
" id="DejaVuSans-Oblique-76"/>
      </defs>
      <g transform="translate(336.060353 318.620312)scale(0.1 -0.1)">
       <use transform="translate(0 0.09375)" xlink:href="#DejaVuSans-Oblique-76"/>
      </g>
     </g>
    </g>
    <g id="xtick_6">
     <g id="text_6">
      <!-- $W$ -->
      <defs>
       <path d="M 9.625 72.90625 
L 19.1875 72.90625 
L 22.703125 10.890625 
L 50.203125 72.90625 
L 61.1875 72.90625 
L 64.796875 10.890625 
L 92 72.90625 
L 102 72.90625 
L 69.578125 0 
L 57.171875 0 
L 53.8125 60.796875 
L 26.515625 0 
L 14.109375 0 
z
" id="DejaVuSans-Oblique-87"/>
      </defs>
      <g transform="translate(396.993488 318.620312)scale(0.1 -0.1)">
       <use transform="translate(0 0.09375)" xlink:href="#DejaVuSans-Oblique-87"/>
      </g>
     </g>
    </g>
    <g id="xtick_7">
     <g id="text_7">
      <!-- $X$ -->
      <g transform="translate(443.1 318.620312)scale(0.1 -0.1)">
       <use transform="translate(0 0.09375)" xlink:href="#DejaVuSans-Oblique-88"/>
      </g>
     </g>
    </g>
    <g id="text_8">
     <!-- Wave Vector -->
     <defs>
      <path d="M 3.328125 72.90625 
L 13.28125 72.90625 
L 28.609375 11.28125 
L 43.890625 72.90625 
L 54.984375 72.90625 
L 70.3125 11.28125 
L 85.59375 72.90625 
L 95.609375 72.90625 
L 77.296875 0 
L 64.890625 0 
L 49.515625 63.28125 
L 33.984375 0 
L 21.578125 0 
z
" id="DejaVuSans-87"/>
      <path d="M 34.28125 27.484375 
Q 23.390625 27.484375 19.1875 25 
Q 14.984375 22.515625 14.984375 16.5 
Q 14.984375 11.71875 18.140625 8.90625 
Q 21.296875 6.109375 26.703125 6.109375 
Q 34.1875 6.109375 38.703125 11.40625 
Q 43.21875 16.703125 43.21875 25.484375 
L 43.21875 27.484375 
z
M 52.203125 31.203125 
L 52.203125 0 
L 43.21875 0 
L 43.21875 8.296875 
Q 40.140625 3.328125 35.546875 0.953125 
Q 30.953125 -1.421875 24.3125 -1.421875 
Q 15.921875 -1.421875 10.953125 3.296875 
Q 6 8.015625 6 15.921875 
Q 6 25.140625 12.171875 29.828125 
Q 18.359375 34.515625 30.609375 34.515625 
L 43.21875 34.515625 
L 43.21875 35.40625 
Q 43.21875 41.609375 39.140625 45 
Q 35.0625 48.390625 27.6875 48.390625 
Q 23 48.390625 18.546875 47.265625 
Q 14.109375 46.140625 10.015625 43.890625 
L 10.015625 52.203125 
Q 14.9375 54.109375 19.578125 55.046875 
Q 24.21875 56 28.609375 56 
Q 40.484375 56 46.34375 49.84375 
Q 52.203125 43.703125 52.203125 31.203125 
z
" id="DejaVuSans-97"/>
      <path d="M 2.984375 54.6875 
L 12.5 54.6875 
L 29.59375 8.796875 
L 46.6875 54.6875 
L 56.203125 54.6875 
L 35.6875 0 
L 23.484375 0 
z
" id="DejaVuSans-118"/>
      <path d="M 56.203125 29.59375 
L 56.203125 25.203125 
L 14.890625 25.203125 
Q 15.484375 15.921875 20.484375 11.0625 
Q 25.484375 6.203125 34.421875 6.203125 
Q 39.59375 6.203125 44.453125 7.46875 
Q 49.3125 8.734375 54.109375 11.28125 
L 54.109375 2.78125 
Q 49.265625 0.734375 44.1875 -0.34375 
Q 39.109375 -1.421875 33.890625 -1.421875 
Q 20.796875 -1.421875 13.15625 6.1875 
Q 5.515625 13.8125 5.515625 26.8125 
Q 5.515625 40.234375 12.765625 48.109375 
Q 20.015625 56 32.328125 56 
Q 43.359375 56 49.78125 48.890625 
Q 56.203125 41.796875 56.203125 29.59375 
z
M 47.21875 32.234375 
Q 47.125 39.59375 43.09375 43.984375 
Q 39.0625 48.390625 32.421875 48.390625 
Q 24.90625 48.390625 20.390625 44.140625 
Q 15.875 39.890625 15.1875 32.171875 
z
" id="DejaVuSans-101"/>
      <path id="DejaVuSans-32"/>
      <path d="M 28.609375 0 
L 0.78125 72.90625 
L 11.078125 72.90625 
L 34.1875 11.53125 
L 57.328125 72.90625 
L 67.578125 72.90625 
L 39.796875 0 
z
" id="DejaVuSans-86"/>
      <path d="M 48.78125 52.59375 
L 48.78125 44.1875 
Q 44.96875 46.296875 41.140625 47.34375 
Q 37.3125 48.390625 33.40625 48.390625 
Q 24.65625 48.390625 19.8125 42.84375 
Q 14.984375 37.3125 14.984375 27.296875 
Q 14.984375 17.28125 19.8125 11.734375 
Q 24.65625 6.203125 33.40625 6.203125 
Q 37.3125 6.203125 41.140625 7.25 
Q 44.96875 8.296875 48.78125 10.40625 
L 48.78125 2.09375 
Q 45.015625 0.34375 40.984375 -0.53125 
Q 36.96875 -1.421875 32.421875 -1.421875 
Q 20.0625 -1.421875 12.78125 6.34375 
Q 5.515625 14.109375 5.515625 27.296875 
Q 5.515625 40.671875 12.859375 48.328125 
Q 20.21875 56 33.015625 56 
Q 37.15625 56 41.109375 55.140625 
Q 45.0625 54.296875 48.78125 52.59375 
z
" id="DejaVuSans-99"/>
      <path d="M 18.3125 70.21875 
L 18.3125 54.6875 
L 36.8125 54.6875 
L 36.8125 47.703125 
L 18.3125 47.703125 
L 18.3125 18.015625 
Q 18.3125 11.328125 20.140625 9.421875 
Q 21.96875 7.515625 27.59375 7.515625 
L 36.8125 7.515625 
L 36.8125 0 
L 27.59375 0 
Q 17.1875 0 13.234375 3.875 
Q 9.28125 7.765625 9.28125 18.015625 
L 9.28125 47.703125 
L 2.6875 47.703125 
L 2.6875 54.6875 
L 9.28125 54.6875 
L 9.28125 70.21875 
z
" id="DejaVuSans-116"/>
      <path d="M 30.609375 48.390625 
Q 23.390625 48.390625 19.1875 42.75 
Q 14.984375 37.109375 14.984375 27.296875 
Q 14.984375 17.484375 19.15625 11.84375 
Q 23.34375 6.203125 30.609375 6.203125 
Q 37.796875 6.203125 41.984375 11.859375 
Q 46.1875 17.53125 46.1875 27.296875 
Q 46.1875 37.015625 41.984375 42.703125 
Q 37.796875 48.390625 30.609375 48.390625 
z
M 30.609375 56 
Q 42.328125 56 49.015625 48.375 
Q 55.71875 40.765625 55.71875 27.296875 
Q 55.71875 13.875 49.015625 6.21875 
Q 42.328125 -1.421875 30.609375 -1.421875 
Q 18.84375 -1.421875 12.171875 6.21875 
Q 5.515625 13.875 5.515625 27.296875 
Q 5.515625 40.765625 12.171875 48.375 
Q 18.84375 56 30.609375 56 
z
" id="DejaVuSans-111"/>
      <path d="M 41.109375 46.296875 
Q 39.59375 47.171875 37.8125 47.578125 
Q 36.03125 48 33.890625 48 
Q 26.265625 48 22.1875 43.046875 
Q 18.109375 38.09375 18.109375 28.8125 
L 18.109375 0 
L 9.078125 0 
L 9.078125 54.6875 
L 18.109375 54.6875 
L 18.109375 46.1875 
Q 20.953125 51.171875 25.484375 53.578125 
Q 30.03125 56 36.53125 56 
Q 37.453125 56 38.578125 55.875 
Q 39.703125 55.765625 41.0625 55.515625 
z
" id="DejaVuSans-114"/>
     </defs>
     <g transform="translate(215.1375 332.720312)scale(0.1 -0.1)">
      <use xlink:href="#DejaVuSans-87"/>
      <use x="92.501953" xlink:href="#DejaVuSans-97"/>
      <use x="153.78125" xlink:href="#DejaVuSans-118"/>
      <use x="212.960938" xlink:href="#DejaVuSans-101"/>
      <use x="274.484375" xlink:href="#DejaVuSans-32"/>
      <use x="306.271484" xlink:href="#DejaVuSans-86"/>
      <use x="366.929688" xlink:href="#DejaVuSans-101"/>
      <use x="428.453125" xlink:href="#DejaVuSans-99"/>
      <use x="483.433594" xlink:href="#DejaVuSans-116"/>
      <use x="522.642578" xlink:href="#DejaVuSans-111"/>
      <use x="583.824219" xlink:href="#DejaVuSans-114"/>
     </g>
    </g>
   </g>
   <g id="matplotlib.axis_2">
    <g id="ytick_1">
     <g id="text_9">
      <!-- −4 -->
      <defs>
       <path d="M 10.59375 35.5 
L 73.1875 35.5 
L 73.1875 27.203125 
L 10.59375 27.203125 
z
" id="DejaVuSans-8722"/>
       <path d="M 37.796875 64.3125 
L 12.890625 25.390625 
L 37.796875 25.390625 
z
M 35.203125 72.90625 
L 47.609375 72.90625 
L 47.609375 25.390625 
L 58.015625 25.390625 
L 58.015625 17.1875 
L 47.609375 17.1875 
L 47.609375 0 
L 37.796875 0 
L 37.796875 17.1875 
L 4.890625 17.1875 
L 4.890625 26.703125 
z
" id="DejaVuSans-52"/>
      </defs>
      <g transform="translate(24.478125 307.821094)scale(0.1 -0.1)">
       <use xlink:href="#DejaVuSans-8722"/>
       <use x="83.789062" xlink:href="#DejaVuSans-52"/>
      </g>
     </g>
    </g>
    <g id="ytick_2">
     <g id="text_10">
      <!-- −3 -->
      <defs>
       <path d="M 40.578125 39.3125 
Q 47.65625 37.796875 51.625 33 
Q 55.609375 28.21875 55.609375 21.1875 
Q 55.609375 10.40625 48.1875 4.484375 
Q 40.765625 -1.421875 27.09375 -1.421875 
Q 22.515625 -1.421875 17.65625 -0.515625 
Q 12.796875 0.390625 7.625 2.203125 
L 7.625 11.71875 
Q 11.71875 9.328125 16.59375 8.109375 
Q 21.484375 6.890625 26.8125 6.890625 
Q 36.078125 6.890625 40.9375 10.546875 
Q 45.796875 14.203125 45.796875 21.1875 
Q 45.796875 27.640625 41.28125 31.265625 
Q 36.765625 34.90625 28.71875 34.90625 
L 20.21875 34.90625 
L 20.21875 43.015625 
L 29.109375 43.015625 
Q 36.375 43.015625 40.234375 45.921875 
Q 44.09375 48.828125 44.09375 54.296875 
Q 44.09375 59.90625 40.109375 62.90625 
Q 36.140625 65.921875 28.71875 65.921875 
Q 24.65625 65.921875 20.015625 65.03125 
Q 15.375 64.15625 9.8125 62.3125 
L 9.8125 71.09375 
Q 15.4375 72.65625 20.34375 73.4375 
Q 25.25 74.21875 29.59375 74.21875 
Q 40.828125 74.21875 47.359375 69.109375 
Q 53.90625 64.015625 53.90625 55.328125 
Q 53.90625 49.265625 50.4375 45.09375 
Q 46.96875 40.921875 40.578125 39.3125 
z
" id="DejaVuSans-51"/>
      </defs>
      <g transform="translate(24.478125 271.643262)scale(0.1 -0.1)">
       <use xlink:href="#DejaVuSans-8722"/>
       <use x="83.789062" xlink:href="#DejaVuSans-51"/>
      </g>
     </g>
    </g>
    <g id="ytick_3">
     <g id="text_11">
      <!-- −2 -->
      <defs>
       <path d="M 19.1875 8.296875 
L 53.609375 8.296875 
L 53.609375 0 
L 7.328125 0 
L 7.328125 8.296875 
Q 12.9375 14.109375 22.625 23.890625 
Q 32.328125 33.6875 34.8125 36.53125 
Q 39.546875 41.84375 41.421875 45.53125 
Q 43.3125 49.21875 43.3125 52.78125 
Q 43.3125 58.59375 39.234375 62.25 
Q 35.15625 65.921875 28.609375 65.921875 
Q 23.96875 65.921875 18.8125 64.3125 
Q 13.671875 62.703125 7.8125 59.421875 
L 7.8125 69.390625 
Q 13.765625 71.78125 18.9375 73 
Q 24.125 74.21875 28.421875 74.21875 
Q 39.75 74.21875 46.484375 68.546875 
Q 53.21875 62.890625 53.21875 53.421875 
Q 53.21875 48.921875 51.53125 44.890625 
Q 49.859375 40.875 45.40625 35.40625 
Q 44.1875 33.984375 37.640625 27.21875 
Q 31.109375 20.453125 19.1875 8.296875 
z
" id="DejaVuSans-50"/>
      </defs>
      <g transform="translate(24.478125 235.46543)scale(0.1 -0.1)">
       <use xlink:href="#DejaVuSans-8722"/>
       <use x="83.789062" xlink:href="#DejaVuSans-50"/>
      </g>
     </g>
    </g>
    <g id="ytick_4">
     <g id="text_12">
      <!-- −1 -->
      <defs>
       <path d="M 12.40625 8.296875 
L 28.515625 8.296875 
L 28.515625 63.921875 
L 10.984375 60.40625 
L 10.984375 69.390625 
L 28.421875 72.90625 
L 38.28125 72.90625 
L 38.28125 8.296875 
L 54.390625 8.296875 
L 54.390625 0 
L 12.40625 0 
z
" id="DejaVuSans-49"/>
      </defs>
      <g transform="translate(24.478125 199.287598)scale(0.1 -0.1)">
       <use xlink:href="#DejaVuSans-8722"/>
       <use x="83.789062" xlink:href="#DejaVuSans-49"/>
      </g>
     </g>
    </g>
    <g id="ytick_5">
     <g id="text_13">
      <!-- 0 -->
      <defs>
       <path d="M 31.78125 66.40625 
Q 24.171875 66.40625 20.328125 58.90625 
Q 16.5 51.421875 16.5 36.375 
Q 16.5 21.390625 20.328125 13.890625 
Q 24.171875 6.390625 31.78125 6.390625 
Q 39.453125 6.390625 43.28125 13.890625 
Q 47.125 21.390625 47.125 36.375 
Q 47.125 51.421875 43.28125 58.90625 
Q 39.453125 66.40625 31.78125 66.40625 
z
M 31.78125 74.21875 
Q 44.046875 74.21875 50.515625 64.515625 
Q 56.984375 54.828125 56.984375 36.375 
Q 56.984375 17.96875 50.515625 8.265625 
Q 44.046875 -1.421875 31.78125 -1.421875 
Q 19.53125 -1.421875 13.0625 8.265625 
Q 6.59375 17.96875 6.59375 36.375 
Q 6.59375 54.828125 13.0625 64.515625 
Q 19.53125 74.21875 31.78125 74.21875 
z
" id="DejaVuSans-48"/>
      </defs>
      <g transform="translate(32.857812 163.109766)scale(0.1 -0.1)">
       <use xlink:href="#DejaVuSans-48"/>
      </g>
     </g>
    </g>
    <g id="ytick_6">
     <g id="text_14">
      <!-- 1 -->
      <g transform="translate(32.857812 126.931934)scale(0.1 -0.1)">
       <use xlink:href="#DejaVuSans-49"/>
      </g>
     </g>
    </g>
    <g id="ytick_7">
     <g id="text_15">
      <!-- 2 -->
      <g transform="translate(32.857812 90.754102)scale(0.1 -0.1)">
       <use xlink:href="#DejaVuSans-50"/>
      </g>
     </g>
    </g>
    <g id="ytick_8">
     <g id="text_16">
      <!-- 3 -->
      <g transform="translate(32.857812 54.57627)scale(0.1 -0.1)">
       <use xlink:href="#DejaVuSans-51"/>
      </g>
     </g>
    </g>
    <g id="ytick_9">
     <g id="text_17">
      <!-- 4 -->
      <g transform="translate(32.857812 18.398438)scale(0.1 -0.1)">
       <use xlink:href="#DejaVuSans-52"/>
      </g>
     </g>
    </g>
    <g id="text_18">
     <!-- $E - E_f$ (eV) -->
     <defs>
      <path d="M 16.890625 72.90625 
L 62.984375 72.90625 
L 61.375 64.59375 
L 25.09375 64.59375 
L 20.90625 43.015625 
L 55.71875 43.015625 
L 54.109375 34.71875 
L 19.28125 34.71875 
L 14.203125 8.296875 
L 51.3125 8.296875 
L 49.703125 0 
L 2.6875 0 
z
" id="DejaVuSans-Oblique-69"/>
      <path d="M 47.796875 75.984375 
L 46.390625 68.5 
L 37.796875 68.5 
Q 32.90625 68.5 30.6875 66.578125 
Q 28.46875 64.65625 27.390625 59.515625 
L 26.421875 54.6875 
L 41.21875 54.6875 
L 39.890625 47.703125 
L 25.09375 47.703125 
L 15.828125 0 
L 6.78125 0 
L 16.109375 47.703125 
L 7.515625 47.703125 
L 8.796875 54.6875 
L 17.390625 54.6875 
L 18.109375 58.5 
Q 19.96875 68.171875 24.625 72.078125 
Q 29.296875 75.984375 39.3125 75.984375 
z
" id="DejaVuSans-Oblique-102"/>
      <path d="M 31 75.875 
Q 24.46875 64.65625 21.28125 53.65625 
Q 18.109375 42.671875 18.109375 31.390625 
Q 18.109375 20.125 21.3125 9.0625 
Q 24.515625 -2 31 -13.1875 
L 23.1875 -13.1875 
Q 15.875 -1.703125 12.234375 9.375 
Q 8.59375 20.453125 8.59375 31.390625 
Q 8.59375 42.28125 12.203125 53.3125 
Q 15.828125 64.359375 23.1875 75.875 
z
" id="DejaVuSans-40"/>
      <path d="M 8.015625 75.875 
L 15.828125 75.875 
Q 23.140625 64.359375 26.78125 53.3125 
Q 30.421875 42.28125 30.421875 31.390625 
Q 30.421875 20.453125 26.78125 9.375 
Q 23.140625 -1.703125 15.828125 -13.1875 
L 8.015625 -13.1875 
Q 14.5 -2 17.703125 9.0625 
Q 20.90625 20.125 20.90625 31.390625 
Q 20.90625 42.671875 17.703125 53.65625 
Q 14.5 64.65625 8.015625 75.875 
z
" id="DejaVuSans-41"/>
     </defs>
     <g transform="translate(18.398437 185.160547)rotate(-90)scale(0.1 -0.1)">
      <use transform="translate(0 0.125)" xlink:href="#DejaVuSans-Oblique-69"/>
      <use transform="translate(82.666016 0.125)" xlink:href="#DejaVuSans-8722"/>
      <use transform="translate(185.9375 0.125)" xlink:href="#DejaVuSans-Oblique-69"/>
      <use transform="translate(249.121094 -16.28125)scale(0.7)" xlink:href="#DejaVuSans-Oblique-102"/>
      <use transform="translate(276.499023 0.125)" xlink:href="#DejaVuSans-32"/>
      <use transform="translate(308.286133 0.125)" xlink:href="#DejaVuSans-40"/>
      <use transform="translate(347.299805 0.125)" xlink:href="#DejaVuSans-101"/>
      <use transform="translate(408.823242 0.125)" xlink:href="#DejaVuSans-86"/>
      <use transform="translate(477.231445 0.125)" xlink:href="#DejaVuSans-41"/>
     </g>
    </g>
   </g>
   <g id="line2d_1">
    <path clip-path="url(#p0b62134ab9)" style="fill:none;stroke:#008000;stroke-linecap:square;"/>
   </g>
   <g id="line2d_2">
    <path clip-path="url(#p0b62134ab9)" d="M 0 0 
" style="fill:none;stroke:#008000;stroke-linecap:square;"/>
   </g>
   <g id="line2d_3">
    <path clip-path="url(#p0b62134ab9)" style="fill:none;stroke:#008000;stroke-linecap:square;"/>
   </g>
   <g id="line2d_4">
    <path clip-path="url(#p0b62134ab9)" d="M 0 0 
" style="fill:none;stroke:#008000;stroke-linecap:square;"/>
   </g>
   <g id="line2d_5">
    <path clip-path="url(#p0b62134ab9)" style="fill:none;stroke:#008000;stroke-linecap:square;"/>
   </g>
   <g id="line2d_6">
    <path clip-path="url(#p0b62134ab9)" d="M 0 0 
" style="fill:none;stroke:#008000;stroke-linecap:square;"/>
   </g>
   <g id="line2d_7">
    <path clip-path="url(#p0b62134ab9)" style="fill:none;stroke:#008000;stroke-linecap:square;"/>
   </g>
   <g id="line2d_8">
    <path clip-path="url(#p0b62134ab9)" d="M 0 0 
" style="fill:none;stroke:#008000;stroke-linecap:square;"/>
   </g>
   <g id="line2d_9">
    <path clip-path="url(#p0b62134ab9)" style="fill:none;stroke:#008000;stroke-linecap:square;"/>
   </g>
   <g id="line2d_10">
    <path clip-path="url(#p0b62134ab9)" d="M 0 0 
" style="fill:none;stroke:#008000;stroke-linecap:square;"/>
   </g>
   <g id="line2d_11">
    <path clip-path="url(#p0b62134ab9)" style="fill:none;stroke:#008000;stroke-linecap:square;"/>
   </g>
   <g id="line2d_12">
    <path clip-path="url(#p0b62134ab9)" d="M 0 0 
" style="fill:none;stroke:#008000;stroke-linecap:square;"/>
   </g>
   <g id="line2d_13">
    <path clip-path="url(#p0b62134ab9)" style="fill:none;stroke:#008000;stroke-linecap:square;"/>
   </g>
   <g id="line2d_14">
    <path clip-path="url(#p0b62134ab9)" d="M 0 0 
" style="fill:none;stroke:#008000;stroke-linecap:square;"/>
   </g>
   <g id="line2d_15">
    <path clip-path="url(#p0b62134ab9)" style="fill:none;stroke:#008000;stroke-linecap:square;"/>
   </g>
   <g id="line2d_16">
    <path clip-path="url(#p0b62134ab9)" d="M 0 0 
" style="fill:none;stroke:#008000;stroke-linecap:square;"/>
   </g>
   <g id="line2d_17">
    <path clip-path="url(#p0b62134ab9)" style="fill:none;stroke:#008000;stroke-linecap:square;"/>
   </g>
   <g id="line2d_18">
    <path clip-path="url(#p0b62134ab9)" d="M 0 0 
" style="fill:none;stroke:#008000;stroke-linecap:square;"/>
   </g>
   <g id="line2d_19">
    <path clip-path="url(#p0b62134ab9)" style="fill:none;stroke:#008000;stroke-linecap:square;"/>
   </g>
   <g id="line2d_20">
    <path clip-path="url(#p0b62134ab9)" d="M 0 0 
" style="fill:none;stroke:#008000;stroke-linecap:square;"/>
   </g>
   <g id="line2d_21">
    <path clip-path="url(#p0b62134ab9)" style="fill:none;stroke:#008000;stroke-linecap:square;"/>
   </g>
   <g id="line2d_22">
    <path clip-path="url(#p0b62134ab9)" d="M 0 0 
" style="fill:none;stroke:#008000;stroke-linecap:square;"/>
   </g>
   <g id="line2d_23">
    <path clip-path="url(#p0b62134ab9)" style="fill:none;stroke:#008000;stroke-linecap:square;"/>
   </g>
   <g id="line2d_24">
    <path clip-path="url(#p0b62134ab9)" d="M 0 0 
" style="fill:none;stroke:#008000;stroke-linecap:square;"/>
   </g>
   <g id="line2d_25">
    <path clip-path="url(#p0b62134ab9)" d="M 46.220312 326.775344 
L 48.507826 327.220186 
L 50.795339 328.516691 
L 53.082853 330.56309 
L 55.370366 333.222016 
L 57.65788 336.349119 
L 59.945393 339.811555 
L 62.232907 343.497859 
L 64.091736 346.6 
" style="fill:none;stroke:#008000;stroke-linecap:square;"/>
   </g>
   <g id="line2d_26">
    <path clip-path="url(#p0b62134ab9)" d="M 244.61644 346.6 
L 247.04196 342.060007 
L 249.468235 337.88154 
L 251.894509 334.181199 
L 254.320784 331.08984 
L 256.747058 328.745661 
L 259.173333 327.276551 
L 261.599607 326.775344 
L 261.599607 326.775344 
L 263.580652 327.110314 
L 265.561696 328.101695 
L 267.542741 329.711681 
L 269.523786 331.884775 
L 271.504831 334.555603 
L 273.485876 337.656261 
L 275.46692 341.121482 
L 278.289368 346.6 
L 278.289368 346.6 
" style="fill:none;stroke:#008000;stroke-linecap:square;"/>
   </g>
   <g id="line2d_27">
    <path clip-path="url(#p0b62134ab9)" d="M 46.220312 326.775344 
L 48.507826 327.220186 
L 50.795339 328.516691 
L 53.082853 330.56309 
L 55.370366 333.222016 
L 57.65788 336.349119 
L 59.945393 339.811555 
L 62.232907 343.497859 
L 64.091736 346.6 
" style="fill:none;stroke:#008000;stroke-linecap:square;"/>
   </g>
   <g id="line2d_28">
    <path clip-path="url(#p0b62134ab9)" d="M 244.61644 346.6 
L 247.04196 342.060007 
L 249.468235 337.88154 
L 251.894509 334.181199 
L 254.320784 331.08984 
L 256.747058 328.745661 
L 259.173333 327.276551 
L 261.599607 326.775344 
L 261.599607 326.775344 
L 263.580652 327.110314 
L 265.561696 328.101695 
L 267.542741 329.711681 
L 269.523786 331.884775 
L 271.504831 334.555603 
L 273.485876 337.656261 
L 275.46692 341.121482 
L 278.289368 346.6 
L 278.289368 346.6 
" style="fill:none;stroke:#008000;stroke-linecap:square;"/>
   </g>
   <g id="line2d_29">
    <path clip-path="url(#p0b62134ab9)" d="M 46.220312 253.565883 
L 48.507826 253.419797 
L 50.795339 253.044922 
L 53.082853 252.603371 
L 55.370366 252.285296 
L 57.65788 252.238807 
L 59.945393 252.536623 
L 62.232907 253.186341 
L 64.52042 254.15815 
L 66.807934 255.407696 
L 69.095447 256.888672 
L 71.382961 258.559002 
L 73.670474 260.381461 
L 75.957987 262.323776 
L 78.245501 264.357079 
L 80.533014 266.456949 
L 82.820528 268.60139 
L 85.108041 270.771408 
L 87.395555 272.950761 
L 89.683068 275.125519 
L 91.970582 277.286493 
L 94.258095 279.428257 
L 96.545609 281.554754 
L 98.833122 283.688125 
L 101.120635 285.901918 
L 103.408149 288.434511 
L 105.695662 292.051716 
L 107.983176 297.701861 
L 110.270689 304.558211 
L 112.558203 311.626274 
L 114.845716 318.551435 
L 117.13323 325.197194 
L 119.420743 331.484684 
L 121.708257 337.346506 
L 123.99577 342.708423 
L 125.86321 346.6 
M 162.726754 346.6 
L 162.931114 346.443313 
L 163.739872 345.806149 
L 164.54863 345.152018 
L 165.357388 344.480992 
L 166.166147 343.793215 
L 166.974905 343.08876 
" style="fill:none;stroke:#008000;stroke-linecap:square;"/>
   </g>
   <g id="line2d_30">
    <path clip-path="url(#p0b62134ab9)" d="M 166.974905 343.08876 
L 171.827454 338.520441 
L 176.680002 333.389954 
L 181.532551 327.736589 
L 186.3851 321.608317 
L 191.237649 315.062988 
L 196.090198 308.170242 
L 203.369021 297.36794 
L 215.500393 279.083772 
L 220.352942 272.112774 
L 225.205491 265.639257 
L 227.631765 262.669636 
L 230.05804 259.929021 
L 232.484314 257.461258 
L 234.910588 255.314068 
L 237.336863 253.536181 
L 239.763137 252.172783 
L 242.189412 251.254553 
L 244.615686 250.786991 
L 247.04196 250.741877 
L 249.468235 251.052211 
L 251.894509 251.614342 
L 256.747058 252.938053 
L 259.173333 253.398777 
L 261.599607 253.565883 
L 261.599607 253.565883 
L 263.580652 253.453189 
L 265.561696 253.127009 
L 267.542741 252.620882 
L 271.504831 251.259112 
L 279.42901 248.270714 
L 285.372144 246.327386 
L 295.277368 243.47158 
L 307.163637 239.994276 
L 321.03095 235.835634 
L 324.993039 234.812018 
L 328.955129 233.965782 
L 332.917218 233.358429 
L 336.879308 233.040317 
L 338.860353 232.999834 
L 338.860353 232.999834 
L 340.477869 233.259989 
L 342.095385 234.043203 
L 343.712902 235.353962 
L 345.330418 237.188757 
L 346.947934 239.525628 
L 348.56545 242.318159 
L 350.182967 245.498624 
L 353.417999 252.709264 
L 358.270548 264.614195 
L 364.740613 280.648572 
L 369.593162 291.958992 
L 372.828195 298.958028 
L 376.063227 305.44247 
L 379.29826 311.360331 
L 382.533292 316.673191 
L 385.768325 321.353987 
L 389.003357 325.382208 
L 390.620874 327.141861 
L 392.23839 328.721422 
L 393.855906 330.107684 
L 395.473422 331.283065 
L 397.090939 332.226981 
L 398.708455 332.919063 
L 400.325971 333.342018 
L 401.943488 333.484342 
L 401.943488 333.484342 
L 403.087244 333.714758 
L 404.231001 334.319869 
L 406.518515 336.087952 
L 416.812325 344.95919 
L 418.947226 346.6 
L 418.947226 346.6 
" style="fill:none;stroke:#008000;stroke-linecap:square;"/>
   </g>
   <g id="line2d_31">
    <path clip-path="url(#p0b62134ab9)" d="M 46.220312 253.565883 
L 48.507826 253.419797 
L 50.795339 253.044922 
L 53.082853 252.603371 
L 55.370366 252.285296 
L 57.65788 252.238807 
L 59.945393 252.536623 
L 62.232907 253.186341 
L 64.52042 254.15815 
L 66.807934 255.407696 
L 69.095447 256.888672 
L 71.382961 258.559002 
L 73.670474 260.381461 
L 75.957987 262.323776 
L 78.245501 264.357079 
L 80.533014 266.456949 
L 82.820528 268.60139 
L 85.108041 270.771408 
L 87.395555 272.950761 
L 89.683068 275.125519 
L 91.970582 277.286493 
L 94.258095 279.428257 
L 96.545609 281.554754 
L 98.833122 283.688125 
L 101.120635 285.901918 
L 103.408149 288.434511 
L 105.695662 292.051716 
L 107.983176 297.701861 
L 110.270689 304.558211 
L 112.558203 311.626274 
L 114.845716 318.551435 
L 117.13323 325.197194 
L 119.420743 331.484684 
L 121.708257 337.346506 
L 123.99577 342.708423 
L 125.86321 346.6 
M 162.726754 346.6 
L 162.931114 346.443313 
L 163.739872 345.806149 
L 164.54863 345.152018 
L 165.357388 344.480992 
L 166.166147 343.793215 
L 166.974905 343.08876 
" style="fill:none;stroke:#008000;stroke-linecap:square;"/>
   </g>
   <g id="line2d_32">
    <path clip-path="url(#p0b62134ab9)" d="M 166.974905 343.08876 
L 171.827454 338.520441 
L 176.680002 333.389954 
L 181.532551 327.736589 
L 186.3851 321.608317 
L 191.237649 315.062988 
L 196.090198 308.170242 
L 203.369021 297.36794 
L 215.500393 279.083772 
L 220.352942 272.112774 
L 225.205491 265.639257 
L 227.631765 262.669636 
L 230.05804 259.929021 
L 232.484314 257.461258 
L 234.910588 255.314068 
L 237.336863 253.536181 
L 239.763137 252.172783 
L 242.189412 251.254553 
L 244.615686 250.786991 
L 247.04196 250.741877 
L 249.468235 251.052211 
L 251.894509 251.614342 
L 256.747058 252.938053 
L 259.173333 253.398777 
L 261.599607 253.565883 
L 261.599607 253.565883 
L 263.580652 253.453189 
L 265.561696 253.127009 
L 267.542741 252.620882 
L 271.504831 251.259112 
L 279.42901 248.270714 
L 285.372144 246.327386 
L 295.277368 243.47158 
L 307.163637 239.994276 
L 321.03095 235.835634 
L 324.993039 234.812018 
L 328.955129 233.965782 
L 332.917218 233.358429 
L 336.879308 233.040317 
L 338.860353 232.999834 
L 338.860353 232.999834 
L 340.477869 233.259989 
L 342.095385 234.043203 
L 343.712902 235.353962 
L 345.330418 237.188757 
L 346.947934 239.525628 
L 348.56545 242.318159 
L 350.182967 245.498624 
L 353.417999 252.709264 
L 358.270548 264.614195 
L 364.740613 280.648572 
L 369.593162 291.958992 
L 372.828195 298.958028 
L 376.063227 305.44247 
L 379.29826 311.360331 
L 382.533292 316.673191 
L 385.768325 321.353987 
L 389.003357 325.382208 
L 390.620874 327.141861 
L 392.23839 328.721422 
L 393.855906 330.107684 
L 395.473422 331.283065 
L 397.090939 332.226981 
L 398.708455 332.919063 
L 400.325971 333.342018 
L 401.943488 333.484342 
L 401.943488 333.484342 
L 403.087244 333.714758 
L 404.231001 334.319869 
L 406.518515 336.087952 
L 416.812325 344.95919 
L 418.947226 346.6 
L 418.947226 346.6 
" style="fill:none;stroke:#008000;stroke-linecap:square;"/>
   </g>
   <g id="line2d_33">
    <path clip-path="url(#p0b62134ab9)" d="M 46.220312 223.985947 
L 48.507826 224.12042 
L 50.795339 224.521813 
L 53.082853 225.18365 
L 55.370366 226.095476 
L 57.65788 227.24376 
L 59.945393 228.611282 
L 62.232907 230.17894 
L 64.52042 231.926004 
L 66.807934 233.830441 
L 69.095447 235.869569 
L 71.382961 238.021209 
L 73.670474 240.263475 
L 75.957987 242.575564 
L 78.245501 244.936746 
L 80.533014 247.328463 
L 82.820528 249.732697 
L 85.108041 252.132734 
L 87.395555 254.51338 
L 89.683068 256.859693 
L 91.970582 259.159989 
L 94.258095 261.401712 
L 96.545609 263.574299 
L 98.833122 265.667512 
L 101.120635 269.317494 
L 103.408149 277.103361 
L 105.695662 283.485782 
L 107.983176 287.48289 
L 110.270689 289.890199 
L 112.558203 291.669425 
L 114.845716 293.142224 
L 117.13323 294.408557 
L 119.420743 295.505107 
L 121.708257 296.446816 
L 123.99577 297.240196 
L 126.283283 297.888068 
L 128.570797 298.391664 
L 130.85831 298.751271 
L 133.145824 298.967036 
L 135.433337 299.038921 
L 135.433337 299.038921 
L 136.242095 299.013163 
L 137.050854 298.936032 
L 137.859612 298.808324 
L 138.66837 298.631125 
L 139.477128 298.406062 
L 140.285886 298.135127 
L 141.094644 297.820597 
L 141.903402 297.464896 
L 142.712161 297.070703 
L 143.520919 296.640765 
L 144.329677 296.177906 
L 145.138435 295.684838 
L 145.947193 295.164203 
L 146.755951 294.618497 
L 147.564709 294.049962 
L 148.373468 293.460734 
L 149.182226 292.852331 
L 149.990984 292.226274 
L 150.799742 291.5839 
L 151.6085 290.926079 
L 152.417258 290.253714 
L 153.226016 289.567058 
L 154.034775 288.866583 
L 154.843533 288.152469 
L 155.652291 287.424752 
L 156.461049 286.683396 
L 157.269807 285.928256 
L 158.078565 285.159151 
L 158.887323 284.375829 
L 159.696081 283.578108 
L 160.50484 282.765698 
L 161.313598 281.938384 
L 162.122356 281.095874 
L 162.931114 280.238062 
L 163.739872 279.364693 
L 164.54863 278.475622 
L 165.357388 277.570706 
L 166.166147 276.649872 
L 166.974905 275.712975 
" style="fill:none;stroke:#008000;stroke-linecap:square;"/>
   </g>
   <g id="line2d_34">
    <path clip-path="url(#p0b62134ab9)" d="M 166.974905 275.712975 
L 171.827454 269.755969 
L 176.680002 263.24244 
L 181.532551 256.232659 
L 188.811374 245.059498 
L 196.090198 233.77697 
L 198.516472 230.207376 
L 200.942747 226.84584 
L 203.369021 223.776224 
L 205.795295 221.08879 
L 208.22157 218.869243 
L 210.647844 217.187336 
L 213.074119 216.079752 
L 215.500393 215.540738 
L 217.926667 215.522649 
L 220.352942 215.945749 
L 222.779216 216.712176 
L 225.205491 217.719874 
L 234.910588 222.349479 
L 237.336863 223.282179 
L 239.763137 224.01261 
L 242.189412 224.511864 
L 244.615686 224.777409 
L 247.04196 224.838296 
L 251.894509 224.561608 
L 259.173333 224.031314 
L 275.46692 223.63636 
L 281.410055 223.232326 
L 287.353189 222.629604 
L 293.296323 221.794366 
L 299.239457 220.705305 
L 305.182592 219.367195 
L 313.106771 217.277925 
L 323.011995 214.565275 
L 326.974084 213.631128 
L 330.936174 212.89111 
L 334.898263 212.413526 
L 338.860353 212.248338 
L 338.860353 212.248338 
L 340.477869 212.653675 
L 342.095385 213.817009 
L 343.712902 215.606582 
L 345.330418 217.869541 
L 346.947934 220.481689 
L 348.56545 223.367523 
L 351.800483 229.851169 
L 355.035516 237.219906 
L 358.270548 245.315275 
L 363.123097 258.247873 
L 371.210678 279.949507 
L 376.063227 292.15059 
L 379.29826 299.678364 
L 382.533292 306.575198 
L 385.768325 312.700213 
L 387.385841 315.425055 
L 389.003357 317.898172 
L 390.620874 320.10151 
L 392.23839 322.019876 
L 393.855906 323.643067 
L 395.473422 324.966488 
L 397.090939 325.990068 
L 398.708455 326.716953 
L 400.325971 327.15105 
L 401.943488 327.295364 
L 401.943488 327.295364 
L 403.087244 327.048667 
L 404.231001 326.394789 
L 405.374758 325.486617 
L 407.662271 323.293951 
L 411.093541 319.627617 
L 421.387352 308.366724 
L 424.818622 304.957253 
L 427.106136 302.897251 
L 429.393649 301.07226 
L 431.681163 299.553913 
L 433.968676 298.432219 
L 435.112433 298.051339 
L 436.256189 297.804606 
L 437.399946 297.696579 
L 438.543703 297.722229 
L 440.831216 298.088096 
L 444.262487 298.841607 
L 446.55 299.038921 
L 446.55 299.038921 
" style="fill:none;stroke:#008000;stroke-linecap:square;"/>
   </g>
   <g id="line2d_35">
    <path clip-path="url(#p0b62134ab9)" d="M 46.220312 223.985947 
L 48.507826 224.12042 
L 50.795339 224.521813 
L 53.082853 225.18365 
L 55.370366 226.095476 
L 57.65788 227.24376 
L 59.945393 228.611282 
L 62.232907 230.17894 
L 64.52042 231.926004 
L 66.807934 233.830441 
L 69.095447 235.869569 
L 71.382961 238.021209 
L 73.670474 240.263475 
L 75.957987 242.575564 
L 78.245501 244.936746 
L 80.533014 247.328463 
L 82.820528 249.732697 
L 85.108041 252.132734 
L 87.395555 254.51338 
L 89.683068 256.859693 
L 91.970582 259.159989 
L 94.258095 261.401712 
L 96.545609 263.574299 
L 98.833122 265.667512 
L 101.120635 269.317494 
L 103.408149 277.103361 
L 105.695662 283.485782 
L 107.983176 287.48289 
L 110.270689 289.890199 
L 112.558203 291.669425 
L 114.845716 293.142224 
L 117.13323 294.408557 
L 119.420743 295.505107 
L 121.708257 296.446816 
L 123.99577 297.240196 
L 126.283283 297.888068 
L 128.570797 298.391664 
L 130.85831 298.751271 
L 133.145824 298.967036 
L 135.433337 299.038921 
L 135.433337 299.038921 
L 136.242095 299.013163 
L 137.050854 298.936032 
L 137.859612 298.808324 
L 138.66837 298.631125 
L 139.477128 298.406062 
L 140.285886 298.135127 
L 141.094644 297.820597 
L 141.903402 297.464896 
L 142.712161 297.070703 
L 143.520919 296.640765 
L 144.329677 296.177906 
L 145.138435 295.684838 
L 145.947193 295.164203 
L 146.755951 294.618497 
L 147.564709 294.049962 
L 148.373468 293.460734 
L 149.182226 292.852331 
L 149.990984 292.226274 
L 150.799742 291.5839 
L 151.6085 290.926079 
L 152.417258 290.253714 
L 153.226016 289.567058 
L 154.034775 288.866583 
L 154.843533 288.152469 
L 155.652291 287.424752 
L 156.461049 286.683396 
L 157.269807 285.928256 
L 158.078565 285.159151 
L 158.887323 284.375829 
L 159.696081 283.578108 
L 160.50484 282.765698 
L 161.313598 281.938384 
L 162.122356 281.095874 
L 162.931114 280.238062 
L 163.739872 279.364693 
L 164.54863 278.475622 
L 165.357388 277.570706 
L 166.166147 276.649872 
L 166.974905 275.712975 
" style="fill:none;stroke:#008000;stroke-linecap:square;"/>
   </g>
   <g id="line2d_36">
    <path clip-path="url(#p0b62134ab9)" d="M 166.974905 275.712975 
L 171.827454 269.755969 
L 176.680002 263.24244 
L 181.532551 256.232659 
L 188.811374 245.059498 
L 196.090198 233.77697 
L 198.516472 230.207376 
L 200.942747 226.84584 
L 203.369021 223.776224 
L 205.795295 221.08879 
L 208.22157 218.869243 
L 210.647844 217.187336 
L 213.074119 216.079752 
L 215.500393 215.540738 
L 217.926667 215.522649 
L 220.352942 215.945749 
L 222.779216 216.712176 
L 225.205491 217.719874 
L 234.910588 222.349479 
L 237.336863 223.282179 
L 239.763137 224.01261 
L 242.189412 224.511864 
L 244.615686 224.777409 
L 247.04196 224.838296 
L 251.894509 224.561608 
L 259.173333 224.031314 
L 275.46692 223.63636 
L 281.410055 223.232326 
L 287.353189 222.629604 
L 293.296323 221.794366 
L 299.239457 220.705305 
L 305.182592 219.367195 
L 313.106771 217.277925 
L 323.011995 214.565275 
L 326.974084 213.631128 
L 330.936174 212.89111 
L 334.898263 212.413526 
L 338.860353 212.248338 
L 338.860353 212.248338 
L 340.477869 212.653675 
L 342.095385 213.817009 
L 343.712902 215.606582 
L 345.330418 217.869541 
L 346.947934 220.481689 
L 348.56545 223.367523 
L 351.800483 229.851169 
L 355.035516 237.219906 
L 358.270548 245.315275 
L 363.123097 258.247873 
L 371.210678 279.949507 
L 376.063227 292.15059 
L 379.29826 299.678364 
L 382.533292 306.575198 
L 385.768325 312.700213 
L 387.385841 315.425055 
L 389.003357 317.898172 
L 390.620874 320.10151 
L 392.23839 322.019876 
L 393.855906 323.643067 
L 395.473422 324.966488 
L 397.090939 325.990068 
L 398.708455 326.716953 
L 400.325971 327.15105 
L 401.943488 327.295364 
L 401.943488 327.295364 
L 403.087244 327.048667 
L 404.231001 326.394789 
L 405.374758 325.486617 
L 407.662271 323.293951 
L 411.093541 319.627617 
L 421.387352 308.366724 
L 424.818622 304.957253 
L 427.106136 302.897251 
L 429.393649 301.07226 
L 431.681163 299.553913 
L 433.968676 298.432219 
L 435.112433 298.051339 
L 436.256189 297.804606 
L 437.399946 297.696579 
L 438.543703 297.722229 
L 440.831216 298.088096 
L 444.262487 298.841607 
L 446.55 299.038921 
L 446.55 299.038921 
" style="fill:none;stroke:#008000;stroke-linecap:square;"/>
   </g>
   <g id="line2d_37">
    <path clip-path="url(#p0b62134ab9)" d="M 46.220312 223.985802 
L 48.507826 223.637807 
L 50.795339 222.568752 
L 53.082853 220.722272 
L 55.370366 218.053144 
L 57.65788 214.573198 
L 59.945393 210.369009 
L 62.232907 205.594548 
L 64.52042 200.454836 
L 66.807934 195.220591 
L 69.095447 190.267158 
L 71.382961 186.155149 
L 73.670474 183.693393 
L 75.957987 183.770307 
L 78.245501 186.781098 
L 80.533014 192.284796 
L 82.820528 199.459149 
L 85.108041 207.614971 
L 87.395555 216.304886 
L 89.683068 225.256042 
L 91.970582 234.298184 
L 94.258095 243.316233 
L 96.545609 252.222708 
L 98.833122 260.930568 
L 101.120635 267.67303 
L 103.408149 269.582424 
L 105.695662 271.388349 
L 107.983176 273.084257 
L 110.270689 274.664288 
L 112.558203 276.123195 
L 114.845716 277.456312 
L 117.13323 278.659514 
L 119.420743 279.729401 
L 121.708257 280.662717 
L 123.99577 281.456784 
L 126.283283 282.109396 
L 128.570797 282.618816 
L 130.85831 282.983597 
L 133.145824 283.202799 
L 135.433337 283.275914 
L 135.433337 283.275914 
L 136.242095 283.253014 
L 137.050854 283.18424 
L 137.859612 283.069592 
L 138.66837 282.90889 
L 139.477128 282.702062 
L 140.285886 282.448889 
L 141.094644 282.149264 
L 141.903402 281.803079 
L 142.712161 281.410115 
L 143.520919 280.970446 
L 144.329677 280.484107 
L 145.138435 279.951352 
L 145.947193 279.372507 
L 146.755951 278.748114 
L 147.564709 278.078824 
L 148.373468 277.365614 
L 149.182226 276.609244 
L 149.990984 275.811125 
L 150.799742 274.972559 
L 151.6085 274.095102 
L 152.417258 273.180418 
L 153.226016 272.22999 
L 154.034775 271.245591 
L 154.843533 270.229067 
L 155.652291 269.182225 
L 156.461049 268.106658 
L 157.269807 267.004066 
L 158.078565 265.876041 
L 158.887323 264.724103 
L 159.696081 263.549698 
L 160.50484 262.354165 
L 161.313598 261.138663 
L 162.122356 259.904347 
L 162.931114 258.652305 
L 163.739872 257.38344 
L 164.54863 256.098657 
L 165.357388 254.798679 
L 166.166147 253.484157 
L 166.974905 252.155816 
" style="fill:none;stroke:#008000;stroke-linecap:square;"/>
   </g>
   <g id="line2d_38">
    <path clip-path="url(#p0b62134ab9)" d="M 166.974905 252.155816 
L 171.827454 243.920113 
L 176.680002 235.273358 
L 181.532551 226.241888 
L 186.3851 216.835434 
L 193.663923 202.072129 
L 205.795295 176.906431 
L 208.22157 172.423853 
L 210.647844 168.697645 
L 213.074119 166.338091 
L 215.500393 165.928847 
L 217.926667 167.428382 
L 220.352942 170.237627 
L 222.779216 173.792352 
L 225.205491 177.750605 
L 230.05804 186.203266 
L 237.336863 199.032106 
L 242.189412 207.045749 
L 244.615686 210.710419 
L 247.04196 214.05202 
L 249.468235 216.996136 
L 251.894509 219.475475 
L 254.320784 221.43805 
L 256.747058 222.85188 
L 259.173333 223.702385 
L 261.599607 223.985802 
L 261.599607 223.985802 
L 263.580652 223.834289 
L 265.561696 223.380728 
L 267.542741 222.629314 
L 269.523786 221.589021 
L 271.504831 220.274354 
L 273.485876 218.707022 
L 275.46692 216.916039 
L 279.42901 212.804971 
L 283.391099 208.241209 
L 293.296323 196.517385 
L 297.258413 192.120765 
L 301.220502 187.996854 
L 305.182592 184.146158 
L 309.144681 180.53789 
L 315.087816 175.473391 
L 323.011995 169.125846 
L 328.955129 164.68158 
L 330.936174 163.353564 
L 332.917218 162.186793 
L 334.898263 161.263462 
L 336.879308 160.670472 
L 338.860353 160.466537 
L 338.860353 160.466537 
L 340.477869 160.842389 
L 342.095385 162.57925 
L 343.712902 165.716013 
L 346.947934 172.877849 
L 348.56545 176.174771 
L 350.182967 179.11791 
L 351.800483 181.667941 
L 353.417999 183.819617 
L 355.035516 185.592331 
L 356.653032 187.019981 
L 358.270548 188.143953 
L 359.888064 189.007048 
L 361.505581 189.649639 
L 363.123097 190.10765 
L 364.740613 190.412448 
L 367.975646 190.661786 
L 371.210678 190.562441 
L 374.445711 190.232138 
L 379.29826 189.488937 
L 390.620874 187.603131 
L 395.473422 187.057569 
L 400.325971 186.793905 
L 401.943488 186.775961 
L 401.943488 186.775961 
L 403.087244 187.175654 
L 404.231001 188.340508 
L 405.374758 190.180223 
L 406.518515 192.576317 
L 407.662271 195.408317 
L 409.949785 201.974232 
L 413.381055 213.025872 
L 422.531109 243.251908 
L 425.962379 253.647428 
L 428.249892 260.046165 
L 430.537406 265.898797 
L 432.824919 271.075338 
L 435.112433 275.420441 
L 436.256189 277.230526 
L 437.399946 278.777816 
L 438.543703 280.05739 
L 439.68746 281.076592 
L 440.831216 281.856441 
L 441.974973 282.428123 
L 443.11873 282.826803 
L 444.262487 283.085329 
L 446.55 283.275914 
L 446.55 283.275914 
" style="fill:none;stroke:#008000;stroke-linecap:square;"/>
   </g>
   <g id="line2d_39">
    <path clip-path="url(#p0b62134ab9)" d="M 46.220312 223.985802 
L 48.507826 223.637807 
L 50.795339 222.568752 
L 53.082853 220.722272 
L 55.370366 218.053144 
L 57.65788 214.573198 
L 59.945393 210.369009 
L 62.232907 205.594548 
L 64.52042 200.454836 
L 66.807934 195.220591 
L 69.095447 190.267158 
L 71.382961 186.155149 
L 73.670474 183.693393 
L 75.957987 183.770307 
L 78.245501 186.781098 
L 80.533014 192.284796 
L 82.820528 199.459149 
L 85.108041 207.614971 
L 87.395555 216.304886 
L 89.683068 225.256042 
L 91.970582 234.298184 
L 94.258095 243.316233 
L 96.545609 252.222708 
L 98.833122 260.930568 
L 101.120635 267.67303 
L 103.408149 269.582424 
L 105.695662 271.388349 
L 107.983176 273.084257 
L 110.270689 274.664288 
L 112.558203 276.123195 
L 114.845716 277.456312 
L 117.13323 278.659514 
L 119.420743 279.729401 
L 121.708257 280.662717 
L 123.99577 281.456784 
L 126.283283 282.109396 
L 128.570797 282.618816 
L 130.85831 282.983597 
L 133.145824 283.202799 
L 135.433337 283.275914 
L 135.433337 283.275914 
L 136.242095 283.253014 
L 137.050854 283.18424 
L 137.859612 283.069592 
L 138.66837 282.90889 
L 139.477128 282.702062 
L 140.285886 282.448889 
L 141.094644 282.149264 
L 141.903402 281.803079 
L 142.712161 281.410115 
L 143.520919 280.970446 
L 144.329677 280.484107 
L 145.138435 279.951352 
L 145.947193 279.372507 
L 146.755951 278.748114 
L 147.564709 278.078824 
L 148.373468 277.365614 
L 149.182226 276.609244 
L 149.990984 275.811125 
L 150.799742 274.972559 
L 151.6085 274.095102 
L 152.417258 273.180418 
L 153.226016 272.22999 
L 154.034775 271.245591 
L 154.843533 270.229067 
L 155.652291 269.182225 
L 156.461049 268.106658 
L 157.269807 267.004066 
L 158.078565 265.876041 
L 158.887323 264.724103 
L 159.696081 263.549698 
L 160.50484 262.354165 
L 161.313598 261.138663 
L 162.122356 259.904347 
L 162.931114 258.652305 
L 163.739872 257.38344 
L 164.54863 256.098657 
L 165.357388 254.798679 
L 166.166147 253.484157 
L 166.974905 252.155816 
" style="fill:none;stroke:#008000;stroke-linecap:square;"/>
   </g>
   <g id="line2d_40">
    <path clip-path="url(#p0b62134ab9)" d="M 166.974905 252.155816 
L 171.827454 243.920113 
L 176.680002 235.273358 
L 181.532551 226.241888 
L 186.3851 216.835434 
L 193.663923 202.072129 
L 205.795295 176.906431 
L 208.22157 172.423853 
L 210.647844 168.697645 
L 213.074119 166.338091 
L 215.500393 165.928847 
L 217.926667 167.428382 
L 220.352942 170.237627 
L 222.779216 173.792352 
L 225.205491 177.750605 
L 230.05804 186.203266 
L 237.336863 199.032106 
L 242.189412 207.045749 
L 244.615686 210.710419 
L 247.04196 214.05202 
L 249.468235 216.996136 
L 251.894509 219.475475 
L 254.320784 221.43805 
L 256.747058 222.85188 
L 259.173333 223.702385 
L 261.599607 223.985802 
L 261.599607 223.985802 
L 263.580652 223.834289 
L 265.561696 223.380728 
L 267.542741 222.629314 
L 269.523786 221.589021 
L 271.504831 220.274354 
L 273.485876 218.707022 
L 275.46692 216.916039 
L 279.42901 212.804971 
L 283.391099 208.241209 
L 293.296323 196.517385 
L 297.258413 192.120765 
L 301.220502 187.996854 
L 305.182592 184.146158 
L 309.144681 180.53789 
L 315.087816 175.473391 
L 323.011995 169.125846 
L 328.955129 164.68158 
L 330.936174 163.353564 
L 332.917218 162.186793 
L 334.898263 161.263462 
L 336.879308 160.670472 
L 338.860353 160.466537 
L 338.860353 160.466537 
L 340.477869 160.842389 
L 342.095385 162.57925 
L 343.712902 165.716013 
L 346.947934 172.877849 
L 348.56545 176.174771 
L 350.182967 179.11791 
L 351.800483 181.667941 
L 353.417999 183.819617 
L 355.035516 185.592331 
L 356.653032 187.019981 
L 358.270548 188.143953 
L 359.888064 189.007048 
L 361.505581 189.649639 
L 363.123097 190.10765 
L 364.740613 190.412448 
L 367.975646 190.661786 
L 371.210678 190.562441 
L 374.445711 190.232138 
L 379.29826 189.488937 
L 390.620874 187.603131 
L 395.473422 187.057569 
L 400.325971 186.793905 
L 401.943488 186.775961 
L 401.943488 186.775961 
L 403.087244 187.175654 
L 404.231001 188.340508 
L 405.374758 190.180223 
L 406.518515 192.576317 
L 407.662271 195.408317 
L 409.949785 201.974232 
L 413.381055 213.025872 
L 422.531109 243.251908 
L 425.962379 253.647428 
L 428.249892 260.046165 
L 430.537406 265.898797 
L 432.824919 271.075338 
L 435.112433 275.420441 
L 436.256189 277.230526 
L 437.399946 278.777816 
L 438.543703 280.05739 
L 439.68746 281.076592 
L 440.831216 281.856441 
L 441.974973 282.428123 
L 443.11873 282.826803 
L 444.262487 283.085329 
L 446.55 283.275914 
L 446.55 283.275914 
" style="fill:none;stroke:#008000;stroke-linecap:square;"/>
   </g>
   <g id="line2d_41">
    <path clip-path="url(#p0b62134ab9)" d="M 46.220312 56.275177 
L 48.507826 56.64278 
L 50.795339 57.839579 
L 53.082853 60.154236 
L 55.370366 63.979753 
L 57.65788 69.520134 
L 59.945393 76.547714 
L 62.232907 84.564577 
L 64.52042 93.055514 
L 66.807934 101.555568 
L 69.095447 109.575036 
L 71.382961 116.489416 
L 73.670474 121.453919 
L 75.957987 123.558673 
L 78.245501 122.397183 
L 80.533014 118.404236 
L 82.820528 112.397775 
L 85.108041 105.065216 
L 87.395555 96.854404 
L 89.683068 88.039205 
L 91.970582 78.792657 
L 94.258095 69.229518 
L 96.545609 59.434008 
L 98.833122 56.84921 
L 101.120635 59.256266 
L 103.408149 61.513474 
L 105.695662 63.619313 
L 107.983176 65.572735 
L 110.270689 67.372908 
L 112.558203 69.018565 
L 114.845716 70.509272 
L 117.13323 71.844415 
L 119.420743 73.023523 
L 121.708257 74.045873 
L 123.99577 74.911717 
L 126.283283 75.620477 
L 128.570797 76.171935 
L 130.85831 76.565912 
L 133.145824 76.802334 
L 135.433337 76.881165 
L 135.433337 76.881165 
L 136.242095 76.842419 
L 137.050854 76.726216 
L 137.859612 76.532737 
L 138.66837 76.262199 
L 139.477128 75.914964 
L 140.285886 75.49143 
L 141.094644 74.992574 
L 141.903402 74.418432 
L 142.712161 73.770125 
L 143.520919 73.048631 
L 144.329677 72.255142 
L 145.138435 71.390926 
L 145.947193 70.456055 
L 146.755951 69.455231 
L 147.564709 68.389107 
L 148.373468 67.26025 
L 149.182226 66.071302 
L 149.990984 64.825844 
L 150.799742 63.527892 
L 151.6085 62.182402 
L 152.417258 60.795742 
L 153.226016 59.374713 
L 154.034775 57.928829 
L 154.843533 56.470211 
L 155.652291 55.014162 
L 156.461049 53.580616 
L 157.269807 52.196235 
L 158.078565 50.896546 
L 158.887323 49.729088 
L 159.696081 48.756229 
L 160.50484 48.055284 
L 161.313598 47.710582 
L 162.122356 47.790715 
L 162.931114 48.318116 
L 163.739872 49.25523 
L 164.54863 50.524204 
L 165.357388 52.040344 
L 166.166147 53.732165 
L 166.974905 55.547858 
" style="fill:none;stroke:#ff0000;stroke-linecap:square;"/>
   </g>
   <g id="line2d_42">
    <path clip-path="url(#p0b62134ab9)" d="M 166.974905 55.547858 
L 169.401179 61.421365 
L 181.532551 92.17813 
L 186.3851 103.589233 
L 188.811374 108.93306 
L 191.237649 113.98591 
L 193.663923 118.705778 
L 196.090198 123.04871 
L 198.516472 126.971038 
L 200.942747 130.435934 
L 203.369021 133.426755 
L 205.795295 135.965535 
L 208.22157 138.086243 
L 210.647844 139.679225 
L 213.074119 140.262484 
L 215.500393 139.202365 
L 217.926667 136.428285 
L 220.352942 132.436315 
L 222.779216 127.704037 
L 225.205491 122.504451 
L 230.05804 111.225831 
L 242.189412 81.581715 
L 244.615686 76.118211 
L 247.04196 71.090542 
L 249.468235 66.642586 
L 251.894509 62.907406 
L 254.320784 59.981885 
L 256.747058 57.908316 
L 259.173333 56.681309 
L 261.599607 56.275177 
L 261.599607 56.275177 
L 263.580652 56.544846 
L 265.561696 57.34112 
L 267.542741 58.640158 
L 269.523786 60.403067 
L 271.504831 62.581479 
L 273.485876 65.12214 
L 275.46692 67.970638 
L 279.42901 74.38352 
L 283.391099 81.446193 
L 291.315278 96.391219 
L 297.258413 107.54177 
L 301.220502 114.688664 
L 305.182592 121.486153 
L 309.144681 127.843864 
L 313.106771 133.67707 
L 317.06886 138.899701 
L 319.049905 141.253395 
L 321.03095 143.418421 
L 323.011995 145.381213 
L 324.993039 147.126468 
L 326.974084 148.636965 
L 328.955129 149.892408 
L 330.936174 150.870295 
L 332.917218 151.5491 
L 334.898263 151.928786 
L 336.879308 152.066008 
L 338.860353 152.085653 
L 338.860353 152.085653 
L 340.477869 153.144216 
L 342.095385 153.969614 
L 343.712902 153.31863 
L 348.56545 149.4709 
L 350.182967 148.473694 
L 353.417999 146.82858 
L 364.740613 141.549655 
L 371.210678 138.167354 
L 382.533292 132.116937 
L 387.385841 129.860127 
L 390.620874 128.601428 
L 393.855906 127.601726 
L 397.090939 126.90675 
L 400.325971 126.550218 
L 401.943488 126.505249 
L 401.943488 126.505249 
L 403.087244 126.063915 
L 404.231001 124.774103 
L 405.374758 122.726438 
L 406.518515 120.039293 
L 407.662271 116.833069 
L 409.949785 109.274652 
L 412.237298 100.685564 
L 415.668568 86.690785 
L 423.674865 52.992943 
L 424.818622 51.931485 
L 425.962379 53.863201 
L 429.393649 60.40191 
L 431.681163 64.327747 
L 433.968676 67.785516 
L 436.256189 70.732454 
L 438.543703 73.131586 
L 440.831216 74.956107 
L 441.974973 75.646271 
L 443.11873 76.185285 
L 444.262487 76.571483 
L 445.406243 76.803709 
L 446.55 76.881165 
L 446.55 76.881165 
" style="fill:none;stroke:#ff0000;stroke-linecap:square;"/>
   </g>
   <g id="line2d_43">
    <path clip-path="url(#p0b62134ab9)" d="M 46.220312 56.275177 
L 48.507826 56.64278 
L 50.795339 57.839579 
L 53.082853 60.154236 
L 55.370366 63.979753 
L 57.65788 69.520134 
L 59.945393 76.547714 
L 62.232907 84.564577 
L 64.52042 93.055514 
L 66.807934 101.555568 
L 69.095447 109.575036 
L 71.382961 116.489416 
L 73.670474 121.453919 
L 75.957987 123.558673 
L 78.245501 122.397183 
L 80.533014 118.404236 
L 82.820528 112.397775 
L 85.108041 105.065216 
L 87.395555 96.854404 
L 89.683068 88.039205 
L 91.970582 78.792657 
L 94.258095 69.229518 
L 96.545609 59.434008 
L 98.833122 56.84921 
L 101.120635 59.256266 
L 103.408149 61.513474 
L 105.695662 63.619313 
L 107.983176 65.572735 
L 110.270689 67.372908 
L 112.558203 69.018565 
L 114.845716 70.509272 
L 117.13323 71.844415 
L 119.420743 73.023523 
L 121.708257 74.045873 
L 123.99577 74.911717 
L 126.283283 75.620477 
L 128.570797 76.171935 
L 130.85831 76.565912 
L 133.145824 76.802334 
L 135.433337 76.881165 
L 135.433337 76.881165 
L 136.242095 76.842419 
L 137.050854 76.726216 
L 137.859612 76.532737 
L 138.66837 76.262199 
L 139.477128 75.914964 
L 140.285886 75.49143 
L 141.094644 74.992574 
L 141.903402 74.418432 
L 142.712161 73.770125 
L 143.520919 73.048631 
L 144.329677 72.255142 
L 145.138435 71.390926 
L 145.947193 70.456055 
L 146.755951 69.455231 
L 147.564709 68.389107 
L 148.373468 67.26025 
L 149.182226 66.071302 
L 149.990984 64.825844 
L 150.799742 63.527892 
L 151.6085 62.182402 
L 152.417258 60.795742 
L 153.226016 59.374713 
L 154.034775 57.928829 
L 154.843533 56.470211 
L 155.652291 55.014162 
L 156.461049 53.580616 
L 157.269807 52.196235 
L 158.078565 50.896546 
L 158.887323 49.729088 
L 159.696081 48.756229 
L 160.50484 48.055284 
L 161.313598 47.710582 
L 162.122356 47.790715 
L 162.931114 48.318116 
L 163.739872 49.25523 
L 164.54863 50.524204 
L 165.357388 52.040344 
L 166.166147 53.732165 
L 166.974905 55.547858 
" style="fill:none;stroke:#ff0000;stroke-linecap:square;"/>
   </g>
   <g id="line2d_44">
    <path clip-path="url(#p0b62134ab9)" d="M 166.974905 55.547858 
L 169.401179 61.421365 
L 181.532551 92.17813 
L 186.3851 103.589233 
L 188.811374 108.93306 
L 191.237649 113.98591 
L 193.663923 118.705778 
L 196.090198 123.04871 
L 198.516472 126.971038 
L 200.942747 130.435934 
L 203.369021 133.426755 
L 205.795295 135.965535 
L 208.22157 138.086243 
L 210.647844 139.679225 
L 213.074119 140.262484 
L 215.500393 139.202365 
L 217.926667 136.428285 
L 220.352942 132.436315 
L 222.779216 127.704037 
L 225.205491 122.504451 
L 230.05804 111.225831 
L 242.189412 81.581715 
L 244.615686 76.118211 
L 247.04196 71.090542 
L 249.468235 66.642586 
L 251.894509 62.907406 
L 254.320784 59.981885 
L 256.747058 57.908316 
L 259.173333 56.681309 
L 261.599607 56.275177 
L 261.599607 56.275177 
L 263.580652 56.544846 
L 265.561696 57.34112 
L 267.542741 58.640158 
L 269.523786 60.403067 
L 271.504831 62.581479 
L 273.485876 65.12214 
L 275.46692 67.970638 
L 279.42901 74.38352 
L 283.391099 81.446193 
L 291.315278 96.391219 
L 297.258413 107.54177 
L 301.220502 114.688664 
L 305.182592 121.486153 
L 309.144681 127.843864 
L 313.106771 133.67707 
L 317.06886 138.899701 
L 319.049905 141.253395 
L 321.03095 143.418421 
L 323.011995 145.381213 
L 324.993039 147.126468 
L 326.974084 148.636965 
L 328.955129 149.892408 
L 330.936174 150.870295 
L 332.917218 151.5491 
L 334.898263 151.928786 
L 336.879308 152.066008 
L 338.860353 152.085653 
L 338.860353 152.085653 
L 340.477869 153.144216 
L 342.095385 153.969614 
L 343.712902 153.31863 
L 348.56545 149.4709 
L 350.182967 148.473694 
L 353.417999 146.82858 
L 364.740613 141.549655 
L 371.210678 138.167354 
L 382.533292 132.116937 
L 387.385841 129.860127 
L 390.620874 128.601428 
L 393.855906 127.601726 
L 397.090939 126.90675 
L 400.325971 126.550218 
L 401.943488 126.505249 
L 401.943488 126.505249 
L 403.087244 126.063915 
L 404.231001 124.774103 
L 405.374758 122.726438 
L 406.518515 120.039293 
L 407.662271 116.833069 
L 409.949785 109.274652 
L 412.237298 100.685564 
L 415.668568 86.690785 
L 423.674865 52.992943 
L 424.818622 51.931485 
L 425.962379 53.863201 
L 429.393649 60.40191 
L 431.681163 64.327747 
L 433.968676 67.785516 
L 436.256189 70.732454 
L 438.543703 73.131586 
L 440.831216 74.956107 
L 441.974973 75.646271 
L 443.11873 76.185285 
L 444.262487 76.571483 
L 445.406243 76.803709 
L 446.55 76.881165 
L 446.55 76.881165 
" style="fill:none;stroke:#ff0000;stroke-linecap:square;"/>
   </g>
   <g id="line2d_45">
    <path clip-path="url(#p0b62134ab9)" d="M 46.220312 26.435267 
L 48.507826 27.373249 
L 50.795339 29.912608 
L 53.082853 33.327325 
L 55.370366 36.69577 
L 57.65788 39.321955 
L 59.945393 41.021662 
L 62.232907 41.951758 
L 64.52042 42.31824 
L 66.807934 42.269363 
L 69.095447 41.896949 
L 71.382961 41.253128 
L 73.670474 40.374151 
L 75.957987 39.283679 
L 78.245501 38.000813 
L 80.533014 36.541219 
L 82.820528 35.990773 
L 85.108041 39.375969 
L 87.395555 42.633168 
L 89.683068 45.757123 
L 91.970582 48.74364 
L 94.258095 51.589171 
L 96.545609 54.293898 
L 98.833122 49.473889 
L 101.120635 39.413304 
L 103.408149 29.323994 
L 105.695662 19.366733 
L 107.983176 11.543784 
L 110.270689 8.586355 
L 112.558203 6.232118 
L 114.845716 4.042491 
L 117.13323 2.000144 
L 119.420743 0.121248 
L 120.935295 -1 
M 143.773153 -1 
L 144.329677 -0.267048 
L 145.138435 0.882936 
L 145.947193 2.113779 
L 146.755951 3.421245 
L 147.564709 4.800851 
L 148.373468 6.248145 
L 149.182226 7.757918 
L 149.990984 9.325395 
L 150.799742 10.945222 
L 151.6085 12.612007 
L 152.417258 14.320541 
L 153.226016 16.062938 
L 154.034775 17.832251 
L 154.843533 19.621027 
L 155.652291 21.418921 
L 156.461049 23.213884 
L 157.269807 24.990469 
L 158.078565 26.728307 
L 158.887323 28.400447 
L 159.696081 29.971578 
L 160.50484 31.399155 
L 161.313598 32.641682 
L 162.122356 33.679624 
L 162.931114 34.54091 
L 163.739872 35.306324 
L 164.54863 36.079843 
L 165.357388 36.948545 
L 166.166147 37.962067 
L 166.974905 39.135748 
" style="fill:none;stroke:#ff0000;stroke-linecap:square;"/>
   </g>
   <g id="line2d_46">
    <path clip-path="url(#p0b62134ab9)" d="M 166.974905 39.135748 
L 169.401179 43.496515 
L 171.827454 48.696789 
L 176.680002 60.174641 
L 188.811374 89.531866 
L 193.663923 100.628367 
L 198.516472 110.975516 
L 200.942747 115.716657 
L 203.369021 120.007167 
L 205.795295 123.625059 
L 208.22157 126.246179 
L 210.647844 127.538741 
L 213.074119 127.348337 
L 215.500393 125.738496 
L 217.926667 122.879506 
L 220.352942 118.969985 
L 222.779216 114.210972 
L 225.205491 108.789543 
L 227.631765 102.866617 
L 232.484314 90.009703 
L 239.763137 69.519375 
L 244.615686 55.966254 
L 247.04196 49.507173 
L 249.468235 43.438884 
L 251.894509 37.940577 
L 254.320784 33.234529 
L 256.747058 29.579772 
L 259.173333 27.243009 
L 261.599607 26.435267 
L 261.599607 26.435267 
L 263.580652 26.804245 
L 265.561696 27.886649 
L 267.542741 29.62948 
L 269.523786 31.954195 
L 271.504831 34.771508 
L 273.485876 37.992203 
L 275.46692 41.533615 
L 279.42901 49.297197 
L 285.372144 61.850181 
L 295.277368 82.973874 
L 299.239457 91.026191 
L 303.201547 98.693432 
L 307.163637 105.893906 
L 311.125726 112.551025 
L 321.03095 127.883335 
L 324.993039 133.284649 
L 328.955129 138.106358 
L 330.936174 140.243563 
L 332.917218 142.134506 
L 334.898263 143.687837 
L 336.879308 144.752877 
L 338.860353 145.140812 
L 338.860353 145.140812 
L 340.477869 144.006998 
L 343.712902 140.362516 
L 345.330418 138.02901 
L 346.947934 134.961021 
L 348.56545 131.131923 
L 350.182967 126.654156 
L 351.800483 121.672795 
L 355.035516 110.662288 
L 358.270548 98.759637 
L 363.123097 80.019592 
L 372.828195 42.178485 
L 376.063227 30.319283 
L 379.29826 19.400198 
L 380.915776 14.450456 
L 382.533292 9.942263 
L 384.150809 5.956516 
L 385.768325 2.564482 
L 387.385841 -0.187964 
L 388.007056 -1 
M 404.959834 -1 
L 406.518515 3.090146 
L 419.099839 37.297444 
L 421.387352 42.871543 
L 422.531109 45.447188 
L 423.674865 47.503029 
L 424.818622 46.204896 
L 427.106136 37.230732 
L 430.537406 23.66513 
L 432.824919 15.41767 
L 435.112433 8.182936 
L 436.256189 5.055543 
L 437.399946 2.305376 
L 439.107752 -1 
L 439.107752 -1 
" style="fill:none;stroke:#ff0000;stroke-linecap:square;"/>
   </g>
   <g id="line2d_47">
    <path clip-path="url(#p0b62134ab9)" d="M 46.220312 26.435231 
L 48.507826 27.373213 
L 50.795339 29.912608 
L 53.082853 33.327325 
L 55.370366 36.69577 
L 57.65788 39.321955 
L 59.945393 41.021662 
L 62.232907 41.951722 
L 64.52042 42.318131 
L 66.807934 42.269363 
L 69.095447 41.896949 
L 71.382961 41.253128 
L 73.670474 40.374151 
L 75.957987 39.283679 
L 78.245501 38.000813 
L 80.533014 36.541219 
L 82.820528 35.990773 
L 85.108041 39.375969 
L 87.395555 42.633168 
L 89.683068 45.757123 
L 91.970582 48.74364 
L 94.258095 51.589171 
L 96.545609 54.293898 
L 98.833122 49.473853 
L 101.120635 39.413304 
L 103.408149 29.323994 
L 105.695662 19.366697 
L 107.983176 11.543784 
L 110.270689 8.586355 
L 112.558203 6.232118 
L 114.845716 4.042491 
L 117.13323 2.000144 
L 119.420743 0.121248 
L 120.935295 -1 
M 143.773153 -1 
L 144.329677 -0.267048 
L 145.138435 0.882936 
L 145.947193 2.113779 
L 146.755951 3.421245 
L 147.564709 4.800851 
L 148.373468 6.248145 
L 149.182226 7.757918 
L 149.990984 9.325395 
L 150.799742 10.945222 
L 151.6085 12.612007 
L 152.417258 14.320541 
L 153.226016 16.062938 
L 154.034775 17.832251 
L 154.843533 19.621027 
L 155.652291 21.418921 
L 156.461049 23.213884 
L 157.269807 24.990469 
L 158.078565 26.728307 
L 158.887323 28.400447 
L 159.696081 29.971578 
L 160.50484 31.399155 
L 161.313598 32.641682 
L 162.122356 33.679624 
L 162.931114 34.54091 
L 163.739872 35.306324 
L 164.54863 36.079843 
L 165.357388 36.948545 
L 166.166147 37.962067 
L 166.974905 39.135748 
" style="fill:none;stroke:#ff0000;stroke-linecap:square;"/>
   </g>
   <g id="line2d_48">
    <path clip-path="url(#p0b62134ab9)" d="M 166.974905 39.135748 
L 169.401179 43.496515 
L 171.827454 48.696789 
L 176.680002 60.174641 
L 188.811374 89.531866 
L 193.663923 100.628367 
L 198.516472 110.975516 
L 200.942747 115.716657 
L 203.369021 120.007167 
L 205.795295 123.625059 
L 208.22157 126.246179 
L 210.647844 127.538741 
L 213.074119 127.348337 
L 215.500393 125.738496 
L 217.926667 122.879506 
L 220.352942 118.969985 
L 222.779216 114.210972 
L 225.205491 108.789543 
L 227.631765 102.866617 
L 232.484314 90.009703 
L 239.763137 69.519375 
L 244.615686 55.966254 
L 247.04196 49.507173 
L 249.468235 43.438884 
L 251.894509 37.940577 
L 254.320784 33.234529 
L 256.747058 29.579772 
L 259.173333 27.243009 
L 261.599607 26.435231 
L 261.599607 26.435231 
L 263.580652 26.804208 
L 265.561696 27.886649 
L 267.542741 29.629444 
L 269.523786 31.954195 
L 271.504831 34.771508 
L 273.485876 37.992203 
L 275.46692 41.533615 
L 279.42901 49.297197 
L 285.372144 61.850181 
L 295.277368 82.973874 
L 299.239457 91.026191 
L 303.201547 98.693432 
L 307.163637 105.893906 
L 311.125726 112.551025 
L 321.03095 127.883335 
L 324.993039 133.284649 
L 328.955129 138.106358 
L 330.936174 140.243563 
L 332.917218 142.134506 
L 334.898263 143.687837 
L 336.879308 144.752877 
L 338.860353 145.140812 
L 338.860353 145.140812 
L 340.477869 144.006998 
L 343.712902 140.362516 
L 345.330418 138.02901 
L 346.947934 134.961021 
L 348.56545 131.131923 
L 350.182967 126.654156 
L 351.800483 121.672795 
L 355.035516 110.662288 
L 358.270548 98.759637 
L 363.123097 80.019592 
L 372.828195 42.178485 
L 376.063227 30.319283 
L 379.29826 19.400198 
L 380.915776 14.450456 
L 382.533292 9.942263 
L 384.150809 5.956516 
L 385.768325 2.564482 
L 387.385841 -0.187964 
L 388.007034 -1 
M 404.959834 -1 
L 406.518515 3.090146 
L 419.099839 37.297444 
L 421.387352 42.871543 
L 422.531109 45.447188 
L 423.674865 47.503029 
L 424.818622 46.204896 
L 427.106136 37.230732 
L 430.537406 23.66513 
L 432.824919 15.41767 
L 435.112433 8.182936 
L 436.256189 5.055543 
L 437.399946 2.305376 
L 439.107752 -1 
L 439.107752 -1 
" style="fill:none;stroke:#ff0000;stroke-linecap:square;"/>
   </g>
   <g id="line2d_49">
    <path clip-path="url(#p0b62134ab9)" d="M 46.220312 26.434616 
L 48.507826 26.446482 
L 50.795339 26.469961 
L 53.082853 26.482298 
L 55.370366 26.450534 
L 57.65788 26.339432 
L 59.945393 26.116468 
L 62.232907 25.755015 
L 64.52042 25.23514 
L 66.807934 24.54389 
L 69.095447 23.675803 
L 71.382961 22.626573 
L 73.670474 21.581866 
L 75.957987 25.14578 
L 78.245501 28.865042 
L 80.533014 32.484309 
L 82.820528 34.918607 
L 85.108041 33.146689 
L 87.395555 31.23914 
L 89.683068 29.208985 
L 91.970582 27.072395 
L 94.258095 24.843442 
L 96.545609 22.538082 
L 98.833122 20.170026 
L 101.120635 17.752732 
L 103.408149 15.286778 
L 105.695662 12.68505 
L 107.983176 8.0252 
L 110.188619 -1 
M 156.538612 -1 
L 157.269807 0.468338 
L 158.078565 2.024492 
L 158.887323 3.487957 
L 159.696081 4.82784 
L 160.50484 6.005754 
L 161.313598 6.97579 
L 162.122356 7.685924 
L 162.931114 8.083085 
L 163.739872 8.121578 
L 164.54863 7.773113 
L 165.357388 7.033421 
L 166.166147 5.921495 
L 166.974905 4.472429 
" style="fill:none;stroke:#ff0000;stroke-linecap:square;"/>
   </g>
   <g id="line2d_50">
    <path clip-path="url(#p0b62134ab9)" d="M 166.974905 4.472429 
L 169.21535 -1 
M 192.523643 -1 
L 196.090198 4.258798 
L 200.942747 10.889218 
L 203.369021 13.952974 
L 205.795295 16.831572 
L 208.22157 19.512783 
L 210.647844 21.984344 
L 213.074119 24.240502 
L 215.500393 26.27026 
L 217.926667 28.066417 
L 220.352942 29.625645 
L 222.779216 30.945666 
L 225.205491 32.025719 
L 227.631765 32.867758 
L 230.05804 33.477246 
L 232.484314 33.861852 
L 234.910588 34.030441 
L 237.336863 33.991369 
L 239.763137 33.755526 
L 242.189412 33.32519 
L 244.615686 32.700833 
L 247.04196 31.881984 
L 249.468235 30.878483 
L 256.747058 27.467312 
L 259.173333 26.710544 
L 261.599607 26.434616 
L 261.599607 26.434616 
L 263.580652 26.794657 
L 265.561696 27.851484 
L 267.542741 29.555171 
L 269.523786 31.830901 
L 271.504831 34.592463 
L 273.485876 37.752923 
L 275.46692 41.231168 
L 279.42901 48.864112 
L 285.372144 61.225172 
L 295.277368 82.12554 
L 301.220502 94.079094 
L 305.182592 101.647243 
L 309.144681 108.840047 
L 313.106771 115.62766 
L 317.06886 121.35168 
L 319.049905 123.928917 
L 321.03095 126.309635 
L 323.011995 128.482874 
L 324.993039 130.437091 
L 326.974084 132.160893 
L 328.955129 133.642882 
L 330.936174 134.872964 
L 332.917218 135.839925 
L 334.898263 136.537289 
L 336.879308 136.958327 
L 338.860353 137.099131 
L 338.860353 137.099131 
L 340.477869 135.952981 
L 342.095385 132.693069 
L 343.712902 128.067335 
L 346.947934 117.069998 
L 351.800483 98.928949 
L 369.593162 30.659173 
L 372.828195 19.530004 
L 376.063227 9.451692 
L 377.680743 4.938797 
L 380.135204 -1 
L 380.135204 -1 
" style="fill:none;stroke:#ff0000;stroke-linecap:square;"/>
   </g>
   <g id="line2d_51">
    <path clip-path="url(#p0b62134ab9)" d="M 46.220312 26.434543 
L 48.507826 26.446482 
L 50.795339 26.469961 
L 53.082853 26.482298 
L 55.370366 26.450534 
L 57.65788 26.339396 
L 59.945393 26.116432 
L 62.232907 25.754979 
L 64.52042 25.235031 
L 66.807934 24.54389 
L 69.095447 23.675803 
L 71.382961 22.626573 
L 73.670474 21.581866 
L 75.957987 25.14578 
L 78.245501 28.865042 
L 80.533014 32.484309 
L 82.820528 34.918607 
L 85.108041 33.146689 
L 87.395555 31.23914 
L 89.683068 29.208985 
L 91.970582 27.072395 
L 94.258095 24.843442 
L 96.545609 22.538082 
L 98.833122 20.170026 
L 101.120635 17.752732 
L 103.408149 15.286778 
L 105.695662 12.68505 
L 107.983176 8.0252 
L 110.188619 -1 
M 156.538612 -1 
L 157.269807 0.468338 
L 158.078565 2.024492 
L 158.887323 3.487957 
L 159.696081 4.82784 
L 160.50484 6.005754 
L 161.313598 6.97579 
L 162.122356 7.685924 
L 162.931114 8.083085 
L 163.739872 8.121578 
L 164.54863 7.773113 
L 165.357388 7.033421 
L 166.166147 5.921495 
L 166.974905 4.472429 
" style="fill:none;stroke:#ff0000;stroke-linecap:square;"/>
   </g>
   <g id="line2d_52">
    <path clip-path="url(#p0b62134ab9)" d="M 166.974905 4.472429 
L 169.21535 -1 
M 192.523643 -1 
L 196.090198 4.258798 
L 200.942747 10.889218 
L 203.369021 13.952974 
L 205.795295 16.831572 
L 208.22157 19.512783 
L 210.647844 21.984344 
L 213.074119 24.240502 
L 215.500393 26.27026 
L 217.926667 28.066417 
L 220.352942 29.625645 
L 222.779216 30.945666 
L 225.205491 32.025719 
L 227.631765 32.867758 
L 230.05804 33.477246 
L 232.484314 33.861852 
L 234.910588 34.030441 
L 237.336863 33.991369 
L 239.763137 33.755489 
L 242.189412 33.325154 
L 244.615686 32.700833 
L 247.04196 31.881984 
L 249.468235 30.878483 
L 256.747058 27.467312 
L 259.173333 26.710472 
L 261.599607 26.434579 
L 261.599607 26.434616 
L 263.580652 26.794621 
L 265.561696 27.851484 
L 267.542741 29.555135 
L 269.523786 31.830901 
L 271.504831 34.592463 
L 273.485876 37.752923 
L 275.46692 41.231168 
L 279.42901 48.864112 
L 285.372144 61.225172 
L 295.277368 82.12554 
L 301.220502 94.079094 
L 305.182592 101.647243 
L 309.144681 108.840047 
L 313.106771 115.62766 
L 317.06886 121.35168 
L 319.049905 123.928917 
L 321.03095 126.309635 
L 323.011995 128.482874 
L 324.993039 130.437091 
L 326.974084 132.160893 
L 328.955129 133.642882 
L 330.936174 134.872964 
L 332.917218 135.839925 
L 334.898263 136.537289 
L 336.879308 136.958327 
L 338.860353 137.099131 
L 338.860353 137.099131 
L 340.477869 135.952981 
L 342.095385 132.693069 
L 343.712902 128.067335 
L 346.947934 117.069998 
L 351.800483 98.928949 
L 369.593162 30.659173 
L 372.828195 19.530004 
L 376.063227 9.451692 
L 377.680743 4.938761 
L 380.135204 -1 
L 380.135204 -1 
" style="fill:none;stroke:#ff0000;stroke-linecap:square;"/>
   </g>
   <g id="line2d_53">
    <path clip-path="url(#p0b62134ab9)" d="M 60.612417 -1 
L 62.232907 1.666657 
L 64.52042 5.55874 
L 66.807934 9.515582 
L 69.095447 13.480709 
L 71.382961 17.417725 
L 73.670474 21.115606 
L 75.957987 19.954659 
L 78.245501 18.372241 
L 80.533014 16.621596 
L 82.820528 14.713758 
L 85.108041 12.659472 
L 87.395555 10.470243 
L 89.683068 8.157466 
L 91.970582 5.736952 
L 94.258095 3.222267 
L 96.545609 0.63009 
L 97.950733 -1 
" style="fill:none;stroke:#ff0000;stroke-linecap:square;"/>
   </g>
   <g id="line2d_54">
    <path clip-path="url(#p0b62134ab9)" d="M 0 0 
" style="fill:none;stroke:#ff0000;stroke-linecap:square;"/>
   </g>
   <g id="line2d_55">
    <path clip-path="url(#p0b62134ab9)" d="M 60.61243 -1 
L 62.232907 1.666584 
L 64.52042 5.558704 
L 66.807934 9.515582 
L 69.095447 13.480709 
L 71.382961 17.417725 
L 73.670474 21.11557 
L 75.957987 19.954659 
L 78.245501 18.372241 
L 80.533014 16.621596 
L 82.820528 14.713758 
L 85.108041 12.659472 
L 87.395555 10.470243 
L 89.683068 8.157466 
L 91.970582 5.736916 
L 94.258095 3.222267 
L 96.545609 0.63009 
L 97.950733 -1 
" style="fill:none;stroke:#ff0000;stroke-linecap:square;"/>
   </g>
   <g id="line2d_56">
    <path clip-path="url(#p0b62134ab9)" d="M 0 0 
" style="fill:none;stroke:#ff0000;stroke-linecap:square;"/>
   </g>
   <g id="line2d_57">
    <path clip-path="url(#p0b62134ab9)" d="M 46.220312 159.310547 
L 446.55 159.310547 
" style="fill:none;stroke:#000000;stroke-dasharray:5.55,2.4;stroke-dashoffset:0;stroke-opacity:0.5;stroke-width:1.5;"/>
   </g>
   <g id="line2d_58">
    <path clip-path="url(#p0b62134ab9)" d="M 46.220312 304.021875 
L 46.220312 14.599219 
" style="fill:none;stroke:#000000;stroke-dasharray:5.55,2.4;stroke-dashoffset:0;stroke-opacity:0.5;stroke-width:1.5;"/>
   </g>
   <g id="line2d_59">
    <path clip-path="url(#p0b62134ab9)" d="M 135.433337 304.021875 
L 135.433337 14.599219 
" style="fill:none;stroke:#000000;stroke-dasharray:5.55,2.4;stroke-dashoffset:0;stroke-opacity:0.5;stroke-width:1.5;"/>
   </g>
   <g id="line2d_60">
    <path clip-path="url(#p0b62134ab9)" d="M 166.974905 304.021875 
L 166.974905 14.599219 
" style="fill:none;stroke:#000000;stroke-dasharray:5.55,2.4;stroke-dashoffset:0;stroke-opacity:0.5;stroke-width:1.5;"/>
   </g>
   <g id="line2d_61">
    <path clip-path="url(#p0b62134ab9)" d="M 261.599607 304.021875 
L 261.599607 14.599219 
" style="fill:none;stroke:#000000;stroke-dasharray:5.55,2.4;stroke-dashoffset:0;stroke-opacity:0.5;stroke-width:1.5;"/>
   </g>
   <g id="line2d_62">
    <path clip-path="url(#p0b62134ab9)" d="M 338.860353 304.021875 
L 338.860353 14.599219 
" style="fill:none;stroke:#000000;stroke-dasharray:5.55,2.4;stroke-dashoffset:0;stroke-opacity:0.5;stroke-width:1.5;"/>
   </g>
   <g id="line2d_63">
    <path clip-path="url(#p0b62134ab9)" d="M 401.943488 304.021875 
L 401.943488 14.599219 
" style="fill:none;stroke:#000000;stroke-dasharray:5.55,2.4;stroke-dashoffset:0;stroke-opacity:0.5;stroke-width:1.5;"/>
   </g>
   <g id="line2d_64">
    <path clip-path="url(#p0b62134ab9)" d="M 446.55 304.021875 
L 446.55 14.599219 
" style="fill:none;stroke:#000000;stroke-dasharray:5.55,2.4;stroke-dashoffset:0;stroke-opacity:0.5;stroke-width:1.5;"/>
   </g>
   <g id="patch_3">
    <path d="M 46.220312 304.021875 
L 46.220312 14.599219 
" style="fill:none;stroke:#000000;stroke-linecap:square;stroke-linejoin:miter;stroke-width:0.8;"/>
   </g>
   <g id="patch_4">
    <path d="M 446.55 304.021875 
L 446.55 14.599219 
" style="fill:none;stroke:#000000;stroke-linecap:square;stroke-linejoin:miter;stroke-width:0.8;"/>
   </g>
   <g id="patch_5">
    <path d="M 46.220312 304.021875 
L 446.55 304.021875 
" style="fill:none;stroke:#000000;stroke-linecap:square;stroke-linejoin:miter;stroke-width:0.8;"/>
   </g>
   <g id="patch_6">
    <path d="M 46.220312 14.599219 
L 446.55 14.599219 
" style="fill:none;stroke:#000000;stroke-linecap:square;stroke-linejoin:miter;stroke-width:0.8;"/>
   </g>
  </g>
 </g>
 <defs>
  <clipPath id="p0b62134ab9">
   <rect height="289.422656" width="400.329688" x="46.220312" y="14.599219"/>
  </clipPath>
 </defs>
</svg>
